<mxfile host="app.diagrams.net" modified="2024-05-08T20:56:52.227Z" agent="Mozilla/5.0 (Windows NT 10.0; Win64; x64) AppleWebKit/537.36 (KHTML, like Gecko) Chrome/124.0.0.0 Safari/537.36 Edg/124.0.0.0" etag="i8VePO9oLAtUUW447dya" version="24.3.1" type="google">
  <diagram id="23iRSUPoRavnBvh4doch" name="Page-1">
    <mxGraphModel dx="2436" dy="-3465" grid="0" gridSize="10" guides="1" tooltips="1" connect="1" arrows="1" fold="1" page="0" pageScale="1" pageWidth="827" pageHeight="1169" math="0" shadow="0">
      <root>
        <mxCell id="0" />
        <mxCell id="1" parent="0" />
        <mxCell id="PDVYzoY3RleATE-HyURN-299" value="" style="rounded=0;whiteSpace=wrap;html=1;fillColor=none;dashed=1;strokeColor=#999999;align=center;verticalAlign=middle;fontFamily=Helvetica;fontSize=12;fontColor=default;labelBackgroundColor=default;strokeWidth=0;" parent="1" vertex="1">
          <mxGeometry x="120" y="4680" width="747" height="480" as="geometry" />
        </mxCell>
        <mxCell id="PDVYzoY3RleATE-HyURN-58" value="" style="group" parent="1" connectable="0" vertex="1">
          <mxGeometry x="-703" y="4334" width="700" height="300" as="geometry" />
        </mxCell>
        <mxCell id="PDVYzoY3RleATE-HyURN-44" value="JanelaPrincipal" style="strokeWidth=1;shadow=0;dashed=0;align=center;html=1;shape=mxgraph.mockup.containers.window;align=left;verticalAlign=top;spacingLeft=8;strokeColor2=#008cff;strokeColor3=#c4c4c4;fontColor=#666666;mainText=;fontSize=17;labelBackgroundColor=none;whiteSpace=wrap;" parent="PDVYzoY3RleATE-HyURN-58" vertex="1">
          <mxGeometry width="700" height="300" as="geometry" />
        </mxCell>
        <mxCell id="PDVYzoY3RleATE-HyURN-45" value="Configurações" style="strokeWidth=1;shadow=0;dashed=0;align=center;html=1;shape=mxgraph.mockup.buttons.button;mainText=;buttonStyle=round;fontSize=16;fontStyle=0;whiteSpace=wrap;fillColor=#f5f5f5;fontColor=#333333;strokeColor=#666666;" parent="PDVYzoY3RleATE-HyURN-58" vertex="1">
          <mxGeometry x="527" y="58" width="150" height="90" as="geometry" />
        </mxCell>
        <mxCell id="PDVYzoY3RleATE-HyURN-48" value="Sócios" style="strokeWidth=1;shadow=0;dashed=0;align=center;html=1;shape=mxgraph.mockup.buttons.button;mainText=;buttonStyle=round;fontSize=16;fontStyle=0;whiteSpace=wrap;fillColor=#f5f5f5;fontColor=#333333;strokeColor=#666666;" parent="PDVYzoY3RleATE-HyURN-58" vertex="1">
          <mxGeometry x="359" y="58" width="150" height="90" as="geometry" />
        </mxCell>
        <mxCell id="PDVYzoY3RleATE-HyURN-52" value="Reservas" style="strokeWidth=1;shadow=0;dashed=0;align=center;html=1;shape=mxgraph.mockup.buttons.button;mainText=;buttonStyle=round;fontSize=16;fontStyle=0;whiteSpace=wrap;fillColor=#f5f5f5;fontColor=#333333;strokeColor=#666666;" parent="PDVYzoY3RleATE-HyURN-58" vertex="1">
          <mxGeometry x="191" y="58" width="150" height="90" as="geometry" />
        </mxCell>
        <mxCell id="PDVYzoY3RleATE-HyURN-50" value="Empréstimos" style="strokeWidth=1;shadow=0;dashed=0;align=center;html=1;shape=mxgraph.mockup.buttons.button;mainText=;buttonStyle=round;fontSize=16;fontStyle=0;whiteSpace=wrap;fillColor=#f5f5f5;fontColor=#333333;strokeColor=#666666;" parent="PDVYzoY3RleATE-HyURN-58" vertex="1">
          <mxGeometry x="23" y="58" width="150" height="90" as="geometry" />
        </mxCell>
        <mxCell id="PDVYzoY3RleATE-HyURN-46" value="Estatisticas" style="strokeWidth=1;shadow=0;dashed=0;align=center;html=1;shape=mxgraph.mockup.buttons.button;mainText=;buttonStyle=round;fontSize=16;fontStyle=0;whiteSpace=wrap;fillColor=#f5f5f5;fontColor=#333333;strokeColor=#666666;" parent="PDVYzoY3RleATE-HyURN-58" vertex="1">
          <mxGeometry x="527" y="180" width="150" height="90" as="geometry" />
        </mxCell>
        <mxCell id="PDVYzoY3RleATE-HyURN-47" value="Adicionar Livro" style="strokeWidth=1;shadow=0;dashed=0;align=center;html=1;shape=mxgraph.mockup.buttons.button;mainText=;buttonStyle=round;fontSize=16;fontStyle=0;whiteSpace=wrap;fillColor=#f5f5f5;fontColor=#333333;strokeColor=#666666;" parent="PDVYzoY3RleATE-HyURN-58" vertex="1">
          <mxGeometry x="359" y="180" width="150" height="90" as="geometry" />
        </mxCell>
        <mxCell id="PDVYzoY3RleATE-HyURN-49" value="Pesquisar" style="strokeWidth=1;shadow=0;dashed=0;align=center;html=1;shape=mxgraph.mockup.buttons.button;mainText=;buttonStyle=round;fontSize=16;fontStyle=0;whiteSpace=wrap;fillColor=#f5f5f5;fontColor=#333333;strokeColor=#666666;" parent="PDVYzoY3RleATE-HyURN-58" vertex="1">
          <mxGeometry x="23" y="180" width="150" height="90" as="geometry" />
        </mxCell>
        <mxCell id="PDVYzoY3RleATE-HyURN-51" value="Pagamentos" style="strokeWidth=1;shadow=0;dashed=0;align=center;html=1;shape=mxgraph.mockup.buttons.button;mainText=;buttonStyle=round;fontSize=16;fontStyle=0;whiteSpace=wrap;fillColor=#f5f5f5;fontColor=#333333;strokeColor=#666666;" parent="PDVYzoY3RleATE-HyURN-58" vertex="1">
          <mxGeometry x="191" y="180" width="150" height="90" as="geometry" />
        </mxCell>
        <mxCell id="PDVYzoY3RleATE-HyURN-68" value="" style="group;absoluteArcSize=0;" parent="1" connectable="0" vertex="1">
          <mxGeometry x="-703" y="4697" width="700" height="450" as="geometry" />
        </mxCell>
        <mxCell id="PDVYzoY3RleATE-HyURN-69" value="JanelaEmprestimos" style="strokeWidth=1;shadow=0;dashed=0;align=center;html=1;shape=mxgraph.mockup.containers.window;align=left;verticalAlign=top;spacingLeft=8;strokeColor2=#008cff;strokeColor3=#c4c4c4;fontColor=#666666;mainText=;fontSize=17;labelBackgroundColor=none;whiteSpace=wrap;" parent="PDVYzoY3RleATE-HyURN-68" vertex="1">
          <mxGeometry width="700" height="450" as="geometry" />
        </mxCell>
        <mxCell id="PDVYzoY3RleATE-HyURN-90" value="Voltar" style="strokeWidth=1;shadow=0;dashed=0;align=center;html=1;shape=mxgraph.mockup.buttons.button;mainText=;buttonStyle=round;fontSize=14;fontStyle=0;whiteSpace=wrap;fillColor=#f5f5f5;fontColor=#333333;strokeColor=#666666;" parent="PDVYzoY3RleATE-HyURN-68" vertex="1">
          <mxGeometry x="535" y="387" width="150" height="50" as="geometry" />
        </mxCell>
        <mxCell id="PDVYzoY3RleATE-HyURN-97" value="Novo Empréstimo" style="strokeWidth=1;shadow=0;dashed=0;align=center;html=1;shape=mxgraph.mockup.buttons.button;mainText=;buttonStyle=round;fontSize=14;fontStyle=0;whiteSpace=wrap;fillColor=#f5f5f5;fontColor=#333333;strokeColor=#666666;" parent="PDVYzoY3RleATE-HyURN-68" vertex="1">
          <mxGeometry x="535" y="41" width="150" height="50" as="geometry" />
        </mxCell>
        <mxCell id="PDVYzoY3RleATE-HyURN-98" value="Devolução" style="strokeWidth=1;shadow=0;dashed=0;align=center;html=1;shape=mxgraph.mockup.buttons.button;mainText=;buttonStyle=round;fontSize=14;fontStyle=0;whiteSpace=wrap;fillColor=#f5f5f5;fontColor=#333333;strokeColor=#666666;" parent="PDVYzoY3RleATE-HyURN-68" vertex="1">
          <mxGeometry x="535" y="100" width="150" height="50" as="geometry" />
        </mxCell>
        <mxCell id="PDVYzoY3RleATE-HyURN-131" value="" style="group" parent="PDVYzoY3RleATE-HyURN-68" connectable="0" vertex="1">
          <mxGeometry x="14" y="41" width="510" height="396" as="geometry" />
        </mxCell>
        <mxCell id="PDVYzoY3RleATE-HyURN-99" value="" style="strokeWidth=1;shadow=0;dashed=0;align=center;html=1;shape=mxgraph.mockup.forms.rrect;rSize=0;strokeColor=#999999;fillColor=#ffffff;fontSize=12;" parent="PDVYzoY3RleATE-HyURN-131" vertex="1">
          <mxGeometry width="87" height="396" as="geometry" />
        </mxCell>
        <mxCell id="PDVYzoY3RleATE-HyURN-100" value="Cod" style="strokeWidth=1;shadow=0;dashed=0;align=center;html=1;shape=mxgraph.mockup.forms.rrect;rSize=0;strokeColor=#999999;fontColor=#008cff;fontSize=15;fillColor=#ffffff;resizeWidth=1;whiteSpace=wrap;" parent="PDVYzoY3RleATE-HyURN-99" vertex="1">
          <mxGeometry width="87" height="30" relative="1" as="geometry">
            <mxPoint y="-1" as="offset" />
          </mxGeometry>
        </mxCell>
        <mxCell id="PDVYzoY3RleATE-HyURN-101" value="123" style="strokeWidth=1;shadow=0;dashed=0;align=center;html=1;shape=mxgraph.mockup.forms.anchor;fontSize=15;fontColor=#666666;align=left;spacingLeft=5;resizeWidth=1;whiteSpace=wrap;" parent="PDVYzoY3RleATE-HyURN-99" vertex="1">
          <mxGeometry width="87" height="20" relative="1" as="geometry">
            <mxPoint y="30" as="offset" />
          </mxGeometry>
        </mxCell>
        <mxCell id="PDVYzoY3RleATE-HyURN-102" value="456" style="strokeWidth=1;shadow=0;dashed=0;align=center;html=1;shape=mxgraph.mockup.forms.anchor;fontSize=15;fontColor=#666666;align=left;spacingLeft=5;resizeWidth=1;whiteSpace=wrap;" parent="PDVYzoY3RleATE-HyURN-99" vertex="1">
          <mxGeometry width="87" height="20" relative="1" as="geometry">
            <mxPoint y="50" as="offset" />
          </mxGeometry>
        </mxCell>
        <mxCell id="PDVYzoY3RleATE-HyURN-103" value="789" style="strokeWidth=1;shadow=0;dashed=0;align=center;html=1;shape=mxgraph.mockup.forms.rrect;rSize=0;fontSize=15;fontColor=#666666;align=left;spacingLeft=5;fillColor=#ddeeff;strokeColor=none;resizeWidth=1;whiteSpace=wrap;" parent="PDVYzoY3RleATE-HyURN-99" vertex="1">
          <mxGeometry width="87" height="20" relative="1" as="geometry">
            <mxPoint y="70" as="offset" />
          </mxGeometry>
        </mxCell>
        <mxCell id="PDVYzoY3RleATE-HyURN-104" value="234" style="strokeWidth=1;shadow=0;dashed=0;align=center;html=1;shape=mxgraph.mockup.forms.anchor;fontSize=15;fontColor=#666666;align=left;spacingLeft=5;resizeWidth=1;whiteSpace=wrap;" parent="PDVYzoY3RleATE-HyURN-99" vertex="1">
          <mxGeometry width="87" height="20" relative="1" as="geometry">
            <mxPoint y="90" as="offset" />
          </mxGeometry>
        </mxCell>
        <mxCell id="PDVYzoY3RleATE-HyURN-111" value="" style="strokeWidth=1;shadow=0;dashed=0;align=center;shape=mxgraph.mockup.forms.rrect;rSize=0;strokeColor=#999999;fillColor=#ffffff;fontSize=11;html=1;" parent="PDVYzoY3RleATE-HyURN-131" vertex="1">
          <mxGeometry x="87" width="218" height="396" as="geometry" />
        </mxCell>
        <mxCell id="PDVYzoY3RleATE-HyURN-112" value="Nome" style="strokeWidth=1;shadow=0;dashed=0;align=center;html=1;shape=mxgraph.mockup.forms.rrect;rSize=0;strokeColor=#999999;fontColor=#008cff;fontSize=15;fillColor=#ffffff;resizeWidth=1;whiteSpace=wrap;" parent="PDVYzoY3RleATE-HyURN-111" vertex="1">
          <mxGeometry width="218" height="30" relative="1" as="geometry">
            <mxPoint y="-1" as="offset" />
          </mxGeometry>
        </mxCell>
        <mxCell id="PDVYzoY3RleATE-HyURN-113" value="Livro 1" style="strokeWidth=1;shadow=0;dashed=0;align=center;html=1;shape=mxgraph.mockup.forms.anchor;fontSize=15;fontColor=#666666;align=left;spacingLeft=5;resizeWidth=1;whiteSpace=wrap;" parent="PDVYzoY3RleATE-HyURN-111" vertex="1">
          <mxGeometry width="218" height="20" relative="1" as="geometry">
            <mxPoint y="30" as="offset" />
          </mxGeometry>
        </mxCell>
        <mxCell id="PDVYzoY3RleATE-HyURN-114" value="Livro 2" style="strokeWidth=1;shadow=0;dashed=0;align=center;html=1;shape=mxgraph.mockup.forms.anchor;fontSize=15;fontColor=#666666;align=left;spacingLeft=5;resizeWidth=1;whiteSpace=wrap;" parent="PDVYzoY3RleATE-HyURN-111" vertex="1">
          <mxGeometry width="218" height="20" relative="1" as="geometry">
            <mxPoint y="50" as="offset" />
          </mxGeometry>
        </mxCell>
        <mxCell id="PDVYzoY3RleATE-HyURN-115" value="Livro 3" style="strokeWidth=1;shadow=0;dashed=0;align=center;html=1;shape=mxgraph.mockup.forms.rrect;rSize=0;fontSize=15;fontColor=#666666;align=left;spacingLeft=5;fillColor=#ddeeff;strokeColor=none;resizeWidth=1;whiteSpace=wrap;" parent="PDVYzoY3RleATE-HyURN-111" vertex="1">
          <mxGeometry width="218" height="20" relative="1" as="geometry">
            <mxPoint y="70" as="offset" />
          </mxGeometry>
        </mxCell>
        <mxCell id="PDVYzoY3RleATE-HyURN-116" value="Livro 4" style="strokeWidth=1;shadow=0;dashed=0;align=center;html=1;shape=mxgraph.mockup.forms.anchor;fontSize=15;fontColor=#666666;align=left;spacingLeft=5;resizeWidth=1;whiteSpace=wrap;" parent="PDVYzoY3RleATE-HyURN-111" vertex="1">
          <mxGeometry width="218" height="20" relative="1" as="geometry">
            <mxPoint y="90" as="offset" />
          </mxGeometry>
        </mxCell>
        <mxCell id="PDVYzoY3RleATE-HyURN-117" value="" style="strokeWidth=1;shadow=0;dashed=0;align=center;html=1;shape=mxgraph.mockup.forms.rrect;rSize=0;strokeColor=#999999;fillColor=#ffffff;fontSize=12;" parent="PDVYzoY3RleATE-HyURN-131" vertex="1">
          <mxGeometry x="305" width="87" height="396" as="geometry" />
        </mxCell>
        <mxCell id="PDVYzoY3RleATE-HyURN-118" value="&lt;font style=&quot;font-size: 15px;&quot;&gt;Sócio&lt;/font&gt;" style="strokeWidth=1;shadow=0;dashed=0;align=center;html=1;shape=mxgraph.mockup.forms.rrect;rSize=0;strokeColor=#999999;fontColor=#008cff;fontSize=17;fillColor=#ffffff;resizeWidth=1;whiteSpace=wrap;" parent="PDVYzoY3RleATE-HyURN-117" vertex="1">
          <mxGeometry width="87" height="30" relative="1" as="geometry">
            <mxPoint y="-1" as="offset" />
          </mxGeometry>
        </mxCell>
        <mxCell id="PDVYzoY3RleATE-HyURN-119" value="10001" style="strokeWidth=1;shadow=0;dashed=0;align=center;html=1;shape=mxgraph.mockup.forms.anchor;fontSize=15;fontColor=#666666;align=left;spacingLeft=5;resizeWidth=1;whiteSpace=wrap;" parent="PDVYzoY3RleATE-HyURN-117" vertex="1">
          <mxGeometry width="87" height="20" relative="1" as="geometry">
            <mxPoint y="30" as="offset" />
          </mxGeometry>
        </mxCell>
        <mxCell id="PDVYzoY3RleATE-HyURN-120" value="10002" style="strokeWidth=1;shadow=0;dashed=0;align=center;html=1;shape=mxgraph.mockup.forms.anchor;fontSize=15;fontColor=#666666;align=left;spacingLeft=5;resizeWidth=1;whiteSpace=wrap;" parent="PDVYzoY3RleATE-HyURN-117" vertex="1">
          <mxGeometry width="87" height="20" relative="1" as="geometry">
            <mxPoint y="50" as="offset" />
          </mxGeometry>
        </mxCell>
        <mxCell id="PDVYzoY3RleATE-HyURN-121" value="10003" style="strokeWidth=1;shadow=0;dashed=0;align=center;html=1;shape=mxgraph.mockup.forms.rrect;rSize=0;fontSize=15;fontColor=#666666;align=left;spacingLeft=5;fillColor=#ddeeff;strokeColor=none;resizeWidth=1;whiteSpace=wrap;" parent="PDVYzoY3RleATE-HyURN-117" vertex="1">
          <mxGeometry width="87" height="20" relative="1" as="geometry">
            <mxPoint y="70" as="offset" />
          </mxGeometry>
        </mxCell>
        <mxCell id="PDVYzoY3RleATE-HyURN-122" value="10004" style="strokeWidth=1;shadow=0;dashed=0;align=center;html=1;shape=mxgraph.mockup.forms.anchor;fontSize=15;fontColor=#666666;align=left;spacingLeft=5;resizeWidth=1;whiteSpace=wrap;" parent="PDVYzoY3RleATE-HyURN-117" vertex="1">
          <mxGeometry width="87" height="20" relative="1" as="geometry">
            <mxPoint y="90" as="offset" />
          </mxGeometry>
        </mxCell>
        <mxCell id="PDVYzoY3RleATE-HyURN-123" value="" style="strokeWidth=1;shadow=0;dashed=0;align=center;html=1;shape=mxgraph.mockup.forms.rrect;rSize=0;strokeColor=#999999;fillColor=#ffffff;fontSize=12;" parent="PDVYzoY3RleATE-HyURN-131" vertex="1">
          <mxGeometry x="392" width="98" height="396" as="geometry" />
        </mxCell>
        <mxCell id="PDVYzoY3RleATE-HyURN-124" value="&lt;font style=&quot;font-size: 15px;&quot;&gt;Data&lt;/font&gt;" style="strokeWidth=1;shadow=0;dashed=0;align=center;html=1;shape=mxgraph.mockup.forms.rrect;rSize=0;strokeColor=#999999;fontColor=#008cff;fontSize=17;fillColor=#ffffff;resizeWidth=1;whiteSpace=wrap;" parent="PDVYzoY3RleATE-HyURN-123" vertex="1">
          <mxGeometry width="97.99999999999999" height="30" relative="1" as="geometry">
            <mxPoint y="-1" as="offset" />
          </mxGeometry>
        </mxCell>
        <mxCell id="PDVYzoY3RleATE-HyURN-125" value="27/04/2024" style="strokeWidth=1;shadow=0;dashed=0;align=center;html=1;shape=mxgraph.mockup.forms.anchor;fontSize=15;fontColor=#666666;align=left;spacingLeft=5;resizeWidth=1;whiteSpace=wrap;" parent="PDVYzoY3RleATE-HyURN-123" vertex="1">
          <mxGeometry width="97.99999999999999" height="20" relative="1" as="geometry">
            <mxPoint y="30" as="offset" />
          </mxGeometry>
        </mxCell>
        <mxCell id="PDVYzoY3RleATE-HyURN-126" value="20/04/2024" style="strokeWidth=1;shadow=0;dashed=0;align=center;html=1;shape=mxgraph.mockup.forms.anchor;fontSize=15;fontColor=#666666;align=left;spacingLeft=5;resizeWidth=1;whiteSpace=wrap;" parent="PDVYzoY3RleATE-HyURN-123" vertex="1">
          <mxGeometry width="97.99999999999999" height="20" relative="1" as="geometry">
            <mxPoint y="50" as="offset" />
          </mxGeometry>
        </mxCell>
        <mxCell id="PDVYzoY3RleATE-HyURN-127" value="21/04/2024" style="strokeWidth=1;shadow=0;dashed=0;align=center;html=1;shape=mxgraph.mockup.forms.rrect;rSize=0;fontSize=15;fontColor=#666666;align=left;spacingLeft=5;fillColor=#ddeeff;strokeColor=none;resizeWidth=1;whiteSpace=wrap;" parent="PDVYzoY3RleATE-HyURN-123" vertex="1">
          <mxGeometry width="97.99999999999999" height="20" relative="1" as="geometry">
            <mxPoint y="70" as="offset" />
          </mxGeometry>
        </mxCell>
        <mxCell id="PDVYzoY3RleATE-HyURN-128" value="20/04/2024" style="strokeWidth=1;shadow=0;dashed=0;align=center;html=1;shape=mxgraph.mockup.forms.anchor;fontSize=15;fontColor=#666666;align=left;spacingLeft=5;resizeWidth=1;whiteSpace=wrap;" parent="PDVYzoY3RleATE-HyURN-123" vertex="1">
          <mxGeometry width="97.99999999999999" height="20" relative="1" as="geometry">
            <mxPoint y="90" as="offset" />
          </mxGeometry>
        </mxCell>
        <mxCell id="PDVYzoY3RleATE-HyURN-186" value="" style="verticalLabelPosition=bottom;shadow=0;dashed=0;align=center;html=1;verticalAlign=top;strokeWidth=1;shape=mxgraph.mockup.navigation.scrollBar;strokeColor=#999999;barPos=41.751;fillColor2=#99ddff;strokeColor2=none;direction=north;" parent="PDVYzoY3RleATE-HyURN-131" vertex="1">
          <mxGeometry x="490" y="-1" width="20" height="397" as="geometry" />
        </mxCell>
        <mxCell id="PDVYzoY3RleATE-HyURN-165" style="rounded=0;orthogonalLoop=1;jettySize=auto;html=1;entryX=0;entryY=0.557;entryDx=0;entryDy=0;entryPerimeter=0;edgeStyle=orthogonalEdgeStyle;strokeColor=#999999;align=center;verticalAlign=middle;fontFamily=Helvetica;fontSize=12;fontColor=default;labelBackgroundColor=default;endArrow=none;endFill=0;dashed=1;fillColor=none;strokeWidth=0;" parent="1" source="PDVYzoY3RleATE-HyURN-134" target="PDVYzoY3RleATE-HyURN-49" edge="1">
          <mxGeometry relative="1" as="geometry">
            <Array as="points">
              <mxPoint x="-794" y="5407" />
              <mxPoint x="-794" y="4559" />
              <mxPoint x="-680" y="4559" />
            </Array>
          </mxGeometry>
        </mxCell>
        <mxCell id="PDVYzoY3RleATE-HyURN-168" style="edgeStyle=orthogonalEdgeStyle;rounded=0;orthogonalLoop=1;jettySize=auto;html=1;entryX=0;entryY=0.513;entryDx=0;entryDy=0;entryPerimeter=0;dashed=1;strokeColor=#999999;align=center;verticalAlign=middle;fontFamily=Helvetica;fontSize=12;fontColor=default;labelBackgroundColor=default;endArrow=none;endFill=0;fillColor=none;strokeWidth=0;" parent="1" source="PDVYzoY3RleATE-HyURN-50" target="PDVYzoY3RleATE-HyURN-69" edge="1">
          <mxGeometry relative="1" as="geometry">
            <Array as="points">
              <mxPoint x="-752" y="4443" />
              <mxPoint x="-752" y="4928" />
            </Array>
          </mxGeometry>
        </mxCell>
        <mxCell id="PDVYzoY3RleATE-HyURN-258" value="&lt;h1 style=&quot;color: var(--uv-styles-color-text-emphasis); font-family: &amp;quot;Google Sans&amp;quot;, arial, sans-serif; font-size: 18px; margin: 0px; padding: 0px; line-height: 24px; flex: 1 1 auto; overflow: hidden; text-overflow: ellipsis; display: -webkit-box; -webkit-box-orient: vertical; -webkit-line-clamp: 2;&quot; class=&quot;indIKd GW0XC cS4Vcb-pGL6qe-fwJd0c&quot;&gt;&lt;span style=&quot;font-weight: normal;&quot;&gt;&amp;nbsp;O livro pretendido encontra-se emprestado, pretende reservar ?&lt;/span&gt;&lt;/h1&gt;" style="strokeWidth=1;shadow=0;dashed=0;align=center;html=1;shape=mxgraph.mockup.containers.rrect;rSize=0;strokeColor=#666666;fontColor=#666666;fontSize=17;verticalAlign=top;whiteSpace=wrap;fillColor=#ffffff;spacingTop=32;" parent="1" vertex="1">
          <mxGeometry x="305" y="4991" width="386" height="140" as="geometry" />
        </mxCell>
        <mxCell id="PDVYzoY3RleATE-HyURN-259" value="JOptionPane:showConfirmDialog" style="strokeWidth=1;shadow=0;dashed=0;align=center;html=1;shape=mxgraph.mockup.containers.rrect;rSize=0;fontSize=17;fontColor=#666666;strokeColor=#666666;align=left;spacingLeft=8;fillColor=none;resizeWidth=1;whiteSpace=wrap;" parent="PDVYzoY3RleATE-HyURN-258" vertex="1">
          <mxGeometry width="386" height="30" relative="1" as="geometry" />
        </mxCell>
        <mxCell id="PDVYzoY3RleATE-HyURN-260" value="" style="shape=ellipse;strokeColor=#008cff;resizable=0;fillColor=none;html=1;" parent="PDVYzoY3RleATE-HyURN-259" vertex="1">
          <mxGeometry x="1" y="0.5" width="20" height="20" relative="1" as="geometry">
            <mxPoint x="-25" y="-10" as="offset" />
          </mxGeometry>
        </mxCell>
        <mxCell id="PDVYzoY3RleATE-HyURN-261" value="Sim" style="strokeWidth=1;shadow=0;dashed=0;align=center;html=1;shape=mxgraph.mockup.containers.rrect;rSize=0;fontSize=16;fontColor=#666666;strokeColor=#c4c4c4;whiteSpace=wrap;fillColor=none;" parent="PDVYzoY3RleATE-HyURN-258" vertex="1">
          <mxGeometry x="0.25" y="1" width="90" height="25" relative="1" as="geometry">
            <mxPoint x="-45" y="-33" as="offset" />
          </mxGeometry>
        </mxCell>
        <mxCell id="PDVYzoY3RleATE-HyURN-262" value="Não" style="strokeWidth=1;shadow=0;dashed=0;align=center;html=1;shape=mxgraph.mockup.containers.rrect;rSize=0;fontSize=16;fontColor=#666666;strokeColor=#c4c4c4;whiteSpace=wrap;fillColor=none;" parent="PDVYzoY3RleATE-HyURN-258" vertex="1">
          <mxGeometry x="0.75" y="1" width="90" height="25" relative="1" as="geometry">
            <mxPoint x="-45" y="-33" as="offset" />
          </mxGeometry>
        </mxCell>
        <mxCell id="PDVYzoY3RleATE-HyURN-298" value="" style="group" parent="1" connectable="0" vertex="1">
          <mxGeometry x="140" y="4700" width="700" height="250" as="geometry" />
        </mxCell>
        <mxCell id="PDVYzoY3RleATE-HyURN-264" value="JanelaCriarEmprestimo" style="strokeWidth=1;shadow=0;dashed=0;align=center;html=1;shape=mxgraph.mockup.containers.window;align=left;verticalAlign=top;spacingLeft=8;strokeColor2=#008cff;strokeColor3=#c4c4c4;fontColor=#666666;mainText=;fontSize=17;labelBackgroundColor=none;whiteSpace=wrap;" parent="PDVYzoY3RleATE-HyURN-298" vertex="1">
          <mxGeometry width="700" height="250" as="geometry" />
        </mxCell>
        <mxCell id="PDVYzoY3RleATE-HyURN-267" value="Voltar" style="strokeWidth=1;shadow=0;dashed=0;align=center;html=1;shape=mxgraph.mockup.buttons.button;mainText=;buttonStyle=round;fontSize=14;fontStyle=0;whiteSpace=wrap;fillColor=#f5f5f5;fontColor=#333333;strokeColor=#666666;" parent="PDVYzoY3RleATE-HyURN-298" vertex="1">
          <mxGeometry x="532" y="177" width="150" height="50" as="geometry" />
        </mxCell>
        <mxCell id="PDVYzoY3RleATE-HyURN-268" value="Submeter" style="strokeWidth=1;shadow=0;dashed=0;align=center;html=1;shape=mxgraph.mockup.buttons.button;mainText=;buttonStyle=round;fontSize=14;fontStyle=0;whiteSpace=wrap;fillColor=#f5f5f5;fontColor=#333333;strokeColor=#666666;" parent="PDVYzoY3RleATE-HyURN-298" vertex="1">
          <mxGeometry x="364" y="177" width="150" height="50" as="geometry" />
        </mxCell>
        <mxCell id="PDVYzoY3RleATE-HyURN-275" value="&lt;span style=&quot;color: rgb(102, 102, 102); font-family: Helvetica; font-size: 17px; font-style: normal; font-variant-ligatures: normal; font-variant-caps: normal; font-weight: 400; letter-spacing: normal; orphans: 2; text-indent: 0px; text-transform: none; widows: 2; word-spacing: 0px; -webkit-text-stroke-width: 0px; white-space: normal; background-color: rgb(255, 255, 255); text-decoration-thickness: initial; text-decoration-style: initial; text-decoration-color: initial; float: none; display: inline !important;&quot;&gt;Titulo&amp;nbsp;&lt;/span&gt;" style="text;whiteSpace=wrap;html=1;align=right;" parent="PDVYzoY3RleATE-HyURN-298" vertex="1">
          <mxGeometry x="25" y="55" width="88" height="30" as="geometry" />
        </mxCell>
        <mxCell id="PDVYzoY3RleATE-HyURN-276" value="&lt;span style=&quot;color: rgb(102, 102, 102); font-family: Helvetica; font-size: 17px; font-style: normal; font-variant-ligatures: normal; font-variant-caps: normal; font-weight: 400; letter-spacing: normal; orphans: 2; text-indent: 0px; text-transform: none; widows: 2; word-spacing: 0px; -webkit-text-stroke-width: 0px; white-space: normal; background-color: rgb(255, 255, 255); text-decoration-thickness: initial; text-decoration-style: initial; text-decoration-color: initial; float: none; display: inline !important;&quot;&gt;Sócio&lt;/span&gt;" style="text;whiteSpace=wrap;html=1;align=right;" parent="PDVYzoY3RleATE-HyURN-298" vertex="1">
          <mxGeometry x="30" y="110" width="78" height="30" as="geometry" />
        </mxCell>
        <mxCell id="PDVYzoY3RleATE-HyURN-286" value="" style="group" parent="PDVYzoY3RleATE-HyURN-298" connectable="0" vertex="1">
          <mxGeometry x="150" y="56.5" width="530" height="30" as="geometry" />
        </mxCell>
        <mxCell id="PDVYzoY3RleATE-HyURN-287" value="" style="strokeWidth=1;shadow=0;dashed=0;align=center;html=1;shape=mxgraph.mockup.forms.pwField;strokeColor=#999999;mainText=;align=left;fontColor=#666666;fontSize=17;spacingLeft=3;" parent="PDVYzoY3RleATE-HyURN-286" vertex="1">
          <mxGeometry width="530" height="30" as="geometry" />
        </mxCell>
        <mxCell id="PDVYzoY3RleATE-HyURN-288" value="" style="group" parent="PDVYzoY3RleATE-HyURN-286" connectable="0" vertex="1">
          <mxGeometry x="500" width="30" height="30" as="geometry" />
        </mxCell>
        <mxCell id="PDVYzoY3RleATE-HyURN-289" value="" style="whiteSpace=wrap;html=1;aspect=fixed;shadow=0;dashed=0;strokeColor=#999999;strokeWidth=1;align=left;verticalAlign=middle;spacingLeft=3;fontFamily=Helvetica;fontSize=17;fontColor=#666666;fillColor=default;" parent="PDVYzoY3RleATE-HyURN-288" vertex="1">
          <mxGeometry width="30" height="30" as="geometry" />
        </mxCell>
        <mxCell id="PDVYzoY3RleATE-HyURN-290" value="" style="triangle;whiteSpace=wrap;html=1;rotation=90;shadow=0;dashed=0;strokeColor=#666666;strokeWidth=1;align=left;verticalAlign=middle;spacingLeft=3;fontFamily=Helvetica;fontSize=17;fontColor=#333333;fillColor=#f5f5f5;" parent="PDVYzoY3RleATE-HyURN-288" vertex="1">
          <mxGeometry x="8.5" y="7" width="13" height="16" as="geometry" />
        </mxCell>
        <mxCell id="PDVYzoY3RleATE-HyURN-291" value="" style="group" parent="PDVYzoY3RleATE-HyURN-298" connectable="0" vertex="1">
          <mxGeometry x="150" y="110" width="530" height="30" as="geometry" />
        </mxCell>
        <mxCell id="PDVYzoY3RleATE-HyURN-292" value="" style="strokeWidth=1;shadow=0;dashed=0;align=center;html=1;shape=mxgraph.mockup.forms.pwField;strokeColor=#999999;mainText=;align=left;fontColor=#666666;fontSize=17;spacingLeft=3;" parent="PDVYzoY3RleATE-HyURN-291" vertex="1">
          <mxGeometry width="530" height="30" as="geometry" />
        </mxCell>
        <mxCell id="PDVYzoY3RleATE-HyURN-293" value="" style="group" parent="PDVYzoY3RleATE-HyURN-291" connectable="0" vertex="1">
          <mxGeometry x="500" width="30" height="30" as="geometry" />
        </mxCell>
        <mxCell id="PDVYzoY3RleATE-HyURN-294" value="" style="whiteSpace=wrap;html=1;aspect=fixed;shadow=0;dashed=0;strokeColor=#999999;strokeWidth=1;align=left;verticalAlign=middle;spacingLeft=3;fontFamily=Helvetica;fontSize=17;fontColor=#666666;fillColor=default;" parent="PDVYzoY3RleATE-HyURN-293" vertex="1">
          <mxGeometry width="30" height="30" as="geometry" />
        </mxCell>
        <mxCell id="PDVYzoY3RleATE-HyURN-295" value="" style="triangle;whiteSpace=wrap;html=1;rotation=90;shadow=0;dashed=0;strokeColor=#666666;strokeWidth=1;align=left;verticalAlign=middle;spacingLeft=3;fontFamily=Helvetica;fontSize=17;fontColor=#333333;fillColor=#f5f5f5;" parent="PDVYzoY3RleATE-HyURN-293" vertex="1">
          <mxGeometry x="8.5" y="7" width="13" height="16" as="geometry" />
        </mxCell>
        <mxCell id="PDVYzoY3RleATE-HyURN-300" style="edgeStyle=orthogonalEdgeStyle;rounded=0;orthogonalLoop=1;jettySize=auto;html=1;entryX=-0.002;entryY=0.173;entryDx=0;entryDy=0;entryPerimeter=0;dashed=1;dashPattern=1 1;strokeColor=#999999;align=center;verticalAlign=middle;fontFamily=Helvetica;fontSize=12;fontColor=default;labelBackgroundColor=default;endArrow=none;endFill=0;fillColor=none;strokeWidth=0;" parent="1" source="PDVYzoY3RleATE-HyURN-97" target="PDVYzoY3RleATE-HyURN-299" edge="1">
          <mxGeometry relative="1" as="geometry" />
        </mxCell>
        <mxCell id="PDVYzoY3RleATE-HyURN-302" value="" style="group" parent="1" connectable="0" vertex="1">
          <mxGeometry x="-707" y="5227" width="700" height="500" as="geometry" />
        </mxCell>
        <mxCell id="PDVYzoY3RleATE-HyURN-134" value="JanelaPesquisar" style="strokeWidth=1;shadow=0;dashed=0;align=center;html=1;shape=mxgraph.mockup.containers.window;align=left;verticalAlign=top;spacingLeft=8;strokeColor2=#008cff;strokeColor3=#c4c4c4;fontColor=#666666;mainText=;fontSize=17;labelBackgroundColor=none;whiteSpace=wrap;" parent="PDVYzoY3RleATE-HyURN-302" vertex="1">
          <mxGeometry width="700" height="500" as="geometry" />
        </mxCell>
        <mxCell id="PDVYzoY3RleATE-HyURN-135" value="Voltar" style="strokeWidth=1;shadow=0;dashed=0;align=center;html=1;shape=mxgraph.mockup.buttons.button;mainText=;buttonStyle=round;fontSize=14;fontStyle=0;whiteSpace=wrap;fillColor=#f5f5f5;fontColor=#333333;strokeColor=#666666;" parent="PDVYzoY3RleATE-HyURN-302" vertex="1">
          <mxGeometry x="529.5" y="431" width="150" height="50" as="geometry" />
        </mxCell>
        <mxCell id="PDVYzoY3RleATE-HyURN-188" value="" style="strokeWidth=1;shadow=0;dashed=0;align=center;html=1;shape=mxgraph.mockup.forms.pwField;strokeColor=#999999;mainText=;align=left;fontColor=#666666;fontSize=17;spacingLeft=3;" parent="PDVYzoY3RleATE-HyURN-302" vertex="1">
          <mxGeometry x="151.5" y="126" width="530" height="30" as="geometry" />
        </mxCell>
        <mxCell id="PDVYzoY3RleATE-HyURN-189" value="&lt;span style=&quot;color: rgb(102, 102, 102); font-family: Helvetica; font-size: 17px; font-style: normal; font-variant-ligatures: normal; font-variant-caps: normal; font-weight: 400; letter-spacing: normal; orphans: 2; text-indent: 0px; text-transform: none; widows: 2; word-spacing: 0px; -webkit-text-stroke-width: 0px; white-space: normal; background-color: rgb(255, 255, 255); text-decoration-thickness: initial; text-decoration-style: initial; text-decoration-color: initial; float: none; display: inline !important;&quot;&gt;Titulo&amp;nbsp;&lt;/span&gt;" style="text;whiteSpace=wrap;html=1;align=right;" parent="PDVYzoY3RleATE-HyURN-302" vertex="1">
          <mxGeometry x="16.5" y="126" width="120" height="30" as="geometry" />
        </mxCell>
        <mxCell id="PDVYzoY3RleATE-HyURN-220" value="Procurar" style="strokeWidth=1;shadow=0;dashed=0;align=center;html=1;shape=mxgraph.mockup.buttons.button;mainText=;buttonStyle=round;fontSize=14;fontStyle=0;whiteSpace=wrap;fillColor=#f5f5f5;fontColor=#333333;strokeColor=#666666;" parent="PDVYzoY3RleATE-HyURN-302" vertex="1">
          <mxGeometry x="370" y="431" width="150" height="50" as="geometry" />
        </mxCell>
        <mxCell id="PDVYzoY3RleATE-HyURN-221" value="&lt;span style=&quot;color: rgb(102, 102, 102); font-family: Helvetica; font-size: 17px; font-style: normal; font-variant-ligatures: normal; font-variant-caps: normal; font-weight: 400; letter-spacing: normal; orphans: 2; text-indent: 0px; text-transform: none; widows: 2; word-spacing: 0px; -webkit-text-stroke-width: 0px; white-space: normal; background-color: rgb(255, 255, 255); text-decoration-thickness: initial; text-decoration-style: initial; text-decoration-color: initial; float: none; display: inline !important;&quot;&gt;Pesquisar por&lt;/span&gt;" style="text;whiteSpace=wrap;html=1;align=right;" parent="PDVYzoY3RleATE-HyURN-302" vertex="1">
          <mxGeometry x="16.5" y="52" width="120" height="30" as="geometry" />
        </mxCell>
        <mxCell id="PDVYzoY3RleATE-HyURN-225" value="" style="verticalLabelPosition=bottom;shadow=0;dashed=0;align=center;html=1;verticalAlign=top;strokeWidth=1;shape=mxgraph.mockup.markup.line;strokeColor=#999999;" parent="PDVYzoY3RleATE-HyURN-302" vertex="1">
          <mxGeometry x="18.5" y="98" width="663" height="20" as="geometry" />
        </mxCell>
        <mxCell id="PDVYzoY3RleATE-HyURN-226" value="" style="strokeWidth=1;shadow=0;dashed=0;align=center;html=1;shape=mxgraph.mockup.forms.rrect;rSize=0;strokeColor=#999999;fillColor=#ffffff;" parent="PDVYzoY3RleATE-HyURN-302" vertex="1">
          <mxGeometry x="21.5" y="178" width="660" height="240" as="geometry" />
        </mxCell>
        <mxCell id="PDVYzoY3RleATE-HyURN-227" value="List" style="strokeWidth=1;shadow=0;dashed=0;align=center;html=1;shape=mxgraph.mockup.forms.rrect;rSize=0;strokeColor=#999999;fontColor=#008cff;fontSize=17;fillColor=#ffffff;resizeWidth=1;whiteSpace=wrap;" parent="PDVYzoY3RleATE-HyURN-226" vertex="1">
          <mxGeometry width="660.0000000000001" height="30" relative="1" as="geometry">
            <mxPoint y="-1" as="offset" />
          </mxGeometry>
        </mxCell>
        <mxCell id="PDVYzoY3RleATE-HyURN-228" value="Item 1" style="strokeWidth=1;shadow=0;dashed=0;align=center;html=1;shape=mxgraph.mockup.forms.anchor;fontSize=17;fontColor=#666666;align=left;spacingLeft=5;resizeWidth=1;whiteSpace=wrap;" parent="PDVYzoY3RleATE-HyURN-226" vertex="1">
          <mxGeometry width="660.0000000000001" height="20" relative="1" as="geometry">
            <mxPoint y="30" as="offset" />
          </mxGeometry>
        </mxCell>
        <mxCell id="PDVYzoY3RleATE-HyURN-229" value="Item 2" style="strokeWidth=1;shadow=0;dashed=0;align=center;html=1;shape=mxgraph.mockup.forms.anchor;fontSize=17;fontColor=#666666;align=left;spacingLeft=5;resizeWidth=1;whiteSpace=wrap;" parent="PDVYzoY3RleATE-HyURN-226" vertex="1">
          <mxGeometry width="660.0000000000001" height="20" relative="1" as="geometry">
            <mxPoint y="50" as="offset" />
          </mxGeometry>
        </mxCell>
        <mxCell id="PDVYzoY3RleATE-HyURN-230" value="Item 3" style="strokeWidth=1;shadow=0;dashed=0;align=center;html=1;shape=mxgraph.mockup.forms.rrect;rSize=0;fontSize=17;fontColor=#666666;align=left;spacingLeft=5;fillColor=#ddeeff;strokeColor=none;resizeWidth=1;whiteSpace=wrap;" parent="PDVYzoY3RleATE-HyURN-226" vertex="1">
          <mxGeometry width="660.0000000000001" height="20" relative="1" as="geometry">
            <mxPoint y="70" as="offset" />
          </mxGeometry>
        </mxCell>
        <mxCell id="PDVYzoY3RleATE-HyURN-231" value="Item 4" style="strokeWidth=1;shadow=0;dashed=0;align=center;html=1;shape=mxgraph.mockup.forms.anchor;fontSize=17;fontColor=#666666;align=left;spacingLeft=5;resizeWidth=1;whiteSpace=wrap;" parent="PDVYzoY3RleATE-HyURN-226" vertex="1">
          <mxGeometry width="660.0000000000001" height="20" relative="1" as="geometry">
            <mxPoint y="90" as="offset" />
          </mxGeometry>
        </mxCell>
        <mxCell id="PDVYzoY3RleATE-HyURN-285" value="" style="group" parent="PDVYzoY3RleATE-HyURN-302" connectable="0" vertex="1">
          <mxGeometry x="142.5" y="52" width="530" height="30" as="geometry" />
        </mxCell>
        <mxCell id="PDVYzoY3RleATE-HyURN-281" value="" style="strokeWidth=1;shadow=0;dashed=0;align=center;html=1;shape=mxgraph.mockup.forms.pwField;strokeColor=#999999;mainText=;align=left;fontColor=#666666;fontSize=17;spacingLeft=3;" parent="PDVYzoY3RleATE-HyURN-285" vertex="1">
          <mxGeometry width="530" height="30" as="geometry" />
        </mxCell>
        <mxCell id="PDVYzoY3RleATE-HyURN-284" value="" style="group" parent="PDVYzoY3RleATE-HyURN-285" connectable="0" vertex="1">
          <mxGeometry x="500" width="30" height="30" as="geometry" />
        </mxCell>
        <mxCell id="PDVYzoY3RleATE-HyURN-282" value="" style="whiteSpace=wrap;html=1;aspect=fixed;shadow=0;dashed=0;strokeColor=#999999;strokeWidth=1;align=left;verticalAlign=middle;spacingLeft=3;fontFamily=Helvetica;fontSize=17;fontColor=#666666;fillColor=default;" parent="PDVYzoY3RleATE-HyURN-284" vertex="1">
          <mxGeometry width="30" height="30" as="geometry" />
        </mxCell>
        <mxCell id="PDVYzoY3RleATE-HyURN-283" value="" style="triangle;whiteSpace=wrap;html=1;rotation=90;shadow=0;dashed=0;strokeColor=#666666;strokeWidth=1;align=left;verticalAlign=middle;spacingLeft=3;fontFamily=Helvetica;fontSize=17;fontColor=#333333;fillColor=#f5f5f5;" parent="PDVYzoY3RleATE-HyURN-284" vertex="1">
          <mxGeometry x="8.5" y="7" width="13" height="16" as="geometry" />
        </mxCell>
        <mxCell id="PDVYzoY3RleATE-HyURN-303" value="" style="rounded=0;whiteSpace=wrap;html=1;fillColor=none;dashed=1;strokeColor=#999999;align=center;verticalAlign=middle;fontFamily=Helvetica;fontSize=12;fontColor=default;labelBackgroundColor=default;strokeWidth=0;" parent="1" vertex="1">
          <mxGeometry x="955" y="4680" width="720" height="480" as="geometry" />
        </mxCell>
        <mxCell id="PDVYzoY3RleATE-HyURN-304" value="&lt;h1 style=&quot;margin: 0px; padding: 0px; line-height: 24px; flex: 1 1 auto; overflow: hidden; text-overflow: ellipsis; display: -webkit-box; -webkit-box-orient: vertical; -webkit-line-clamp: 2;&quot; class=&quot;indIKd GW0XC cS4Vcb-pGL6qe-fwJd0c&quot;&gt;&lt;font face=&quot;Google Sans, arial, sans-serif&quot;&gt;&lt;span style=&quot;font-size: 18px; font-weight: 400;&quot;&gt;O sócio 10001 entregou o livro com 5 dias de atraso.&lt;/span&gt;&lt;/font&gt;&lt;/h1&gt;&lt;h1 style=&quot;margin: 0px; padding: 0px; line-height: 24px; flex: 1 1 auto; overflow: hidden; text-overflow: ellipsis; display: -webkit-box; -webkit-box-orient: vertical; -webkit-line-clamp: 2;&quot; class=&quot;indIKd GW0XC cS4Vcb-pGL6qe-fwJd0c&quot;&gt;&lt;font face=&quot;Google Sans, arial, sans-serif&quot;&gt;&lt;span style=&quot;font-size: 18px; font-weight: 400;&quot;&gt;Valor da multa 5.00 €&lt;/span&gt;&lt;/font&gt;&lt;/h1&gt;&lt;h1 style=&quot;margin: 0px; padding: 0px; line-height: 24px; flex: 1 1 auto; overflow: hidden; text-overflow: ellipsis; display: -webkit-box; -webkit-box-orient: vertical; -webkit-line-clamp: 2;&quot; class=&quot;indIKd GW0XC cS4Vcb-pGL6qe-fwJd0c&quot;&gt;&lt;font face=&quot;Google Sans, arial, sans-serif&quot;&gt;&lt;span style=&quot;font-size: 18px; font-weight: 400;&quot;&gt;Pretende efetuar o pagamento?&lt;/span&gt;&lt;/font&gt;&lt;/h1&gt;" style="strokeWidth=1;shadow=0;dashed=0;align=center;html=1;shape=mxgraph.mockup.containers.rrect;rSize=0;strokeColor=#666666;fontColor=#666666;fontSize=17;verticalAlign=top;whiteSpace=wrap;fillColor=#ffffff;spacingTop=32;" parent="1" vertex="1">
          <mxGeometry x="1063" y="4935" width="500" height="200" as="geometry" />
        </mxCell>
        <mxCell id="PDVYzoY3RleATE-HyURN-305" value="JOptionPane:showConfirmDialog" style="strokeWidth=1;shadow=0;dashed=0;align=center;html=1;shape=mxgraph.mockup.containers.rrect;rSize=0;fontSize=17;fontColor=#666666;strokeColor=#666666;align=left;spacingLeft=8;fillColor=none;resizeWidth=1;whiteSpace=wrap;" parent="PDVYzoY3RleATE-HyURN-304" vertex="1">
          <mxGeometry width="500" height="30" relative="1" as="geometry" />
        </mxCell>
        <mxCell id="PDVYzoY3RleATE-HyURN-306" value="" style="shape=ellipse;strokeColor=#008cff;resizable=0;fillColor=none;html=1;" parent="PDVYzoY3RleATE-HyURN-305" vertex="1">
          <mxGeometry x="1" y="0.5" width="20" height="20" relative="1" as="geometry">
            <mxPoint x="-25" y="-10" as="offset" />
          </mxGeometry>
        </mxCell>
        <mxCell id="PDVYzoY3RleATE-HyURN-307" value="Sim" style="strokeWidth=1;shadow=0;dashed=0;align=center;html=1;shape=mxgraph.mockup.containers.rrect;rSize=0;fontSize=16;fontColor=#666666;strokeColor=#c4c4c4;whiteSpace=wrap;fillColor=none;" parent="PDVYzoY3RleATE-HyURN-304" vertex="1">
          <mxGeometry x="0.25" y="1" width="90" height="25" relative="1" as="geometry">
            <mxPoint x="-45" y="-33" as="offset" />
          </mxGeometry>
        </mxCell>
        <mxCell id="PDVYzoY3RleATE-HyURN-308" value="Não" style="strokeWidth=1;shadow=0;dashed=0;align=center;html=1;shape=mxgraph.mockup.containers.rrect;rSize=0;fontSize=16;fontColor=#666666;strokeColor=#c4c4c4;whiteSpace=wrap;fillColor=none;" parent="PDVYzoY3RleATE-HyURN-304" vertex="1">
          <mxGeometry x="0.75" y="1" width="90" height="25" relative="1" as="geometry">
            <mxPoint x="-45" y="-33" as="offset" />
          </mxGeometry>
        </mxCell>
        <mxCell id="PDVYzoY3RleATE-HyURN-325" style="edgeStyle=orthogonalEdgeStyle;rounded=0;orthogonalLoop=1;jettySize=auto;html=1;entryX=0.5;entryY=1;entryDx=0;entryDy=0;dashed=1;strokeColor=#999999;align=center;verticalAlign=middle;fontFamily=Helvetica;fontSize=12;fontColor=default;labelBackgroundColor=default;endArrow=none;endFill=0;fillColor=none;strokeWidth=0;" parent="1" source="PDVYzoY3RleATE-HyURN-98" target="PDVYzoY3RleATE-HyURN-303" edge="1">
          <mxGeometry relative="1" as="geometry">
            <Array as="points">
              <mxPoint x="64" y="4822" />
              <mxPoint x="64" y="5206" />
              <mxPoint x="1315" y="5206" />
            </Array>
          </mxGeometry>
        </mxCell>
        <mxCell id="PDVYzoY3RleATE-HyURN-329" value="" style="group" parent="1" connectable="0" vertex="1">
          <mxGeometry x="975" y="4700" width="700" height="200" as="geometry" />
        </mxCell>
        <mxCell id="PDVYzoY3RleATE-HyURN-310" value="JanelaDevolverEmprestimo" style="strokeWidth=1;shadow=0;dashed=0;align=center;html=1;shape=mxgraph.mockup.containers.window;align=left;verticalAlign=top;spacingLeft=8;strokeColor2=#008cff;strokeColor3=#c4c4c4;fontColor=#666666;mainText=;fontSize=17;labelBackgroundColor=none;whiteSpace=wrap;" parent="PDVYzoY3RleATE-HyURN-329" vertex="1">
          <mxGeometry width="700" height="200" as="geometry" />
        </mxCell>
        <mxCell id="PDVYzoY3RleATE-HyURN-311" value="Voltar" style="strokeWidth=1;shadow=0;dashed=0;align=center;html=1;shape=mxgraph.mockup.buttons.button;mainText=;buttonStyle=round;fontSize=14;fontStyle=0;whiteSpace=wrap;fillColor=#f5f5f5;fontColor=#333333;strokeColor=#666666;" parent="PDVYzoY3RleATE-HyURN-329" vertex="1">
          <mxGeometry x="530" y="123" width="150" height="50" as="geometry" />
        </mxCell>
        <mxCell id="PDVYzoY3RleATE-HyURN-312" value="Submeter" style="strokeWidth=1;shadow=0;dashed=0;align=center;html=1;shape=mxgraph.mockup.buttons.button;mainText=;buttonStyle=round;fontSize=14;fontStyle=0;whiteSpace=wrap;fillColor=#f5f5f5;fontColor=#333333;strokeColor=#666666;" parent="PDVYzoY3RleATE-HyURN-329" vertex="1">
          <mxGeometry x="362" y="123" width="150" height="50" as="geometry" />
        </mxCell>
        <mxCell id="PDVYzoY3RleATE-HyURN-313" value="&lt;span style=&quot;color: rgb(102, 102, 102); font-family: Helvetica; font-size: 17px; font-style: normal; font-variant-ligatures: normal; font-variant-caps: normal; font-weight: 400; letter-spacing: normal; orphans: 2; text-indent: 0px; text-transform: none; widows: 2; word-spacing: 0px; -webkit-text-stroke-width: 0px; white-space: normal; background-color: rgb(255, 255, 255); text-decoration-thickness: initial; text-decoration-style: initial; text-decoration-color: initial; float: none; display: inline !important;&quot;&gt;Código&lt;/span&gt;" style="text;whiteSpace=wrap;html=1;align=right;" parent="PDVYzoY3RleATE-HyURN-329" vertex="1">
          <mxGeometry x="25" y="55" width="88" height="30" as="geometry" />
        </mxCell>
        <mxCell id="PDVYzoY3RleATE-HyURN-315" value="" style="group" parent="PDVYzoY3RleATE-HyURN-329" connectable="0" vertex="1">
          <mxGeometry x="150" y="56.5" width="530" height="30" as="geometry" />
        </mxCell>
        <mxCell id="PDVYzoY3RleATE-HyURN-316" value="" style="strokeWidth=1;shadow=0;dashed=0;align=center;html=1;shape=mxgraph.mockup.forms.pwField;strokeColor=#999999;mainText=;align=left;fontColor=#666666;fontSize=17;spacingLeft=3;" parent="PDVYzoY3RleATE-HyURN-315" vertex="1">
          <mxGeometry width="530" height="30" as="geometry" />
        </mxCell>
        <mxCell id="PDVYzoY3RleATE-HyURN-317" value="" style="group" parent="PDVYzoY3RleATE-HyURN-315" connectable="0" vertex="1">
          <mxGeometry x="500" width="30" height="30" as="geometry" />
        </mxCell>
        <mxCell id="PDVYzoY3RleATE-HyURN-318" value="" style="whiteSpace=wrap;html=1;aspect=fixed;shadow=0;dashed=0;strokeColor=#999999;strokeWidth=1;align=left;verticalAlign=middle;spacingLeft=3;fontFamily=Helvetica;fontSize=17;fontColor=#666666;fillColor=default;" parent="PDVYzoY3RleATE-HyURN-317" vertex="1">
          <mxGeometry width="30" height="30" as="geometry" />
        </mxCell>
        <mxCell id="PDVYzoY3RleATE-HyURN-319" value="" style="triangle;whiteSpace=wrap;html=1;rotation=90;shadow=0;dashed=0;strokeColor=#666666;strokeWidth=1;align=left;verticalAlign=middle;spacingLeft=3;fontFamily=Helvetica;fontSize=17;fontColor=#333333;fillColor=#f5f5f5;" parent="PDVYzoY3RleATE-HyURN-317" vertex="1">
          <mxGeometry x="8.5" y="7" width="13" height="16" as="geometry" />
        </mxCell>
        <mxCell id="PDVYzoY3RleATE-HyURN-368" style="edgeStyle=orthogonalEdgeStyle;rounded=0;orthogonalLoop=1;jettySize=auto;html=1;entryX=-0.011;entryY=0.502;entryDx=0;entryDy=0;entryPerimeter=0;dashed=1;dashPattern=1 1;strokeColor=#999999;align=center;verticalAlign=middle;fontFamily=Helvetica;fontSize=12;fontColor=default;labelBackgroundColor=default;endArrow=none;endFill=0;fillColor=none;strokeWidth=0;" parent="1" source="PDVYzoY3RleATE-HyURN-45" target="PDVYzoY3RleATE-HyURN-344" edge="1">
          <mxGeometry relative="1" as="geometry" />
        </mxCell>
        <mxCell id="PDVYzoY3RleATE-HyURN-397" value="" style="group" parent="1" connectable="0" vertex="1">
          <mxGeometry x="-706" y="5786" width="700" height="130" as="geometry" />
        </mxCell>
        <mxCell id="PDVYzoY3RleATE-HyURN-380" value="JanelaPagamentos" style="strokeWidth=1;shadow=0;dashed=0;align=center;html=1;shape=mxgraph.mockup.containers.window;align=left;verticalAlign=top;spacingLeft=8;strokeColor2=#008cff;strokeColor3=#c4c4c4;fontColor=#666666;mainText=;fontSize=17;labelBackgroundColor=none;whiteSpace=wrap;" parent="PDVYzoY3RleATE-HyURN-397" vertex="1">
          <mxGeometry width="700" height="130" as="geometry" />
        </mxCell>
        <mxCell id="PDVYzoY3RleATE-HyURN-381" value="Voltar" style="strokeWidth=1;shadow=0;dashed=0;align=center;html=1;shape=mxgraph.mockup.buttons.button;mainText=;buttonStyle=round;fontSize=14;fontStyle=0;whiteSpace=wrap;fillColor=#f5f5f5;fontColor=#333333;strokeColor=#666666;" parent="PDVYzoY3RleATE-HyURN-397" vertex="1">
          <mxGeometry x="511" y="56" width="150" height="50" as="geometry" />
        </mxCell>
        <mxCell id="PDVYzoY3RleATE-HyURN-382" value="Pagar Anuidade" style="strokeWidth=1;shadow=0;dashed=0;align=center;html=1;shape=mxgraph.mockup.buttons.button;mainText=;buttonStyle=round;fontSize=14;fontStyle=0;whiteSpace=wrap;fillColor=#f5f5f5;fontColor=#333333;strokeColor=#666666;" parent="PDVYzoY3RleATE-HyURN-397" vertex="1">
          <mxGeometry x="39" y="56" width="200" height="50" as="geometry" />
        </mxCell>
        <mxCell id="PDVYzoY3RleATE-HyURN-395" value="Pagar Multas" style="strokeWidth=1;shadow=0;dashed=0;align=center;html=1;shape=mxgraph.mockup.buttons.button;mainText=;buttonStyle=round;fontSize=14;fontStyle=0;whiteSpace=wrap;fillColor=#f5f5f5;fontColor=#333333;strokeColor=#666666;" parent="PDVYzoY3RleATE-HyURN-397" vertex="1">
          <mxGeometry x="275" y="56" width="200" height="50" as="geometry" />
        </mxCell>
        <mxCell id="PDVYzoY3RleATE-HyURN-398" style="edgeStyle=orthogonalEdgeStyle;rounded=0;orthogonalLoop=1;jettySize=auto;html=1;entryX=-0.006;entryY=0.462;entryDx=0;entryDy=0;entryPerimeter=0;dashed=1;strokeColor=#999999;align=center;verticalAlign=middle;fontFamily=Helvetica;fontSize=12;fontColor=default;labelBackgroundColor=default;endArrow=none;endFill=0;fillColor=none;strokeWidth=0;" parent="1" source="PDVYzoY3RleATE-HyURN-51" target="PDVYzoY3RleATE-HyURN-380" edge="1">
          <mxGeometry relative="1" as="geometry">
            <Array as="points">
              <mxPoint x="-437" y="4660" />
              <mxPoint x="-836" y="4660" />
              <mxPoint x="-836" y="5846" />
            </Array>
          </mxGeometry>
        </mxCell>
        <mxCell id="PDVYzoY3RleATE-HyURN-399" value="" style="group" parent="1" connectable="0" vertex="1">
          <mxGeometry x="185" y="5735" width="700" height="250" as="geometry" />
        </mxCell>
        <mxCell id="PDVYzoY3RleATE-HyURN-400" value="JanelaPagar" style="strokeWidth=1;shadow=0;dashed=0;align=center;html=1;shape=mxgraph.mockup.containers.window;align=left;verticalAlign=top;spacingLeft=8;strokeColor2=#008cff;strokeColor3=#c4c4c4;fontColor=#666666;mainText=;fontSize=17;labelBackgroundColor=none;whiteSpace=wrap;" parent="PDVYzoY3RleATE-HyURN-399" vertex="1">
          <mxGeometry width="700" height="250" as="geometry" />
        </mxCell>
        <mxCell id="PDVYzoY3RleATE-HyURN-401" value="Voltar" style="strokeWidth=1;shadow=0;dashed=0;align=center;html=1;shape=mxgraph.mockup.buttons.button;mainText=;buttonStyle=round;fontSize=14;fontStyle=0;whiteSpace=wrap;fillColor=#f5f5f5;fontColor=#333333;strokeColor=#666666;" parent="PDVYzoY3RleATE-HyURN-399" vertex="1">
          <mxGeometry x="532" y="177" width="150" height="50" as="geometry" />
        </mxCell>
        <mxCell id="PDVYzoY3RleATE-HyURN-402" value="Submeter" style="strokeWidth=1;shadow=0;dashed=0;align=center;html=1;shape=mxgraph.mockup.buttons.button;mainText=;buttonStyle=round;fontSize=14;fontStyle=0;whiteSpace=wrap;fillColor=#f5f5f5;fontColor=#333333;strokeColor=#666666;" parent="PDVYzoY3RleATE-HyURN-399" vertex="1">
          <mxGeometry x="364" y="177" width="150" height="50" as="geometry" />
        </mxCell>
        <mxCell id="PDVYzoY3RleATE-HyURN-403" value="&lt;span style=&quot;color: rgb(102, 102, 102); font-family: Helvetica; font-size: 17px; font-style: normal; font-variant-ligatures: normal; font-variant-caps: normal; font-weight: 400; letter-spacing: normal; orphans: 2; text-indent: 0px; text-transform: none; widows: 2; word-spacing: 0px; -webkit-text-stroke-width: 0px; white-space: normal; background-color: rgb(255, 255, 255); text-decoration-thickness: initial; text-decoration-style: initial; text-decoration-color: initial; float: none; display: inline !important;&quot;&gt;Sócio&lt;/span&gt;" style="text;whiteSpace=wrap;html=1;align=right;" parent="PDVYzoY3RleATE-HyURN-399" vertex="1">
          <mxGeometry x="25" y="55" width="88" height="30" as="geometry" />
        </mxCell>
        <mxCell id="PDVYzoY3RleATE-HyURN-404" value="&lt;span style=&quot;color: rgb(102, 102, 102); font-family: Helvetica; font-size: 17px; font-style: normal; font-variant-ligatures: normal; font-variant-caps: normal; font-weight: 400; letter-spacing: normal; orphans: 2; text-indent: 0px; text-transform: none; widows: 2; word-spacing: 0px; -webkit-text-stroke-width: 0px; white-space: normal; background-color: rgb(255, 255, 255); text-decoration-thickness: initial; text-decoration-style: initial; text-decoration-color: initial; float: none; display: inline !important;&quot;&gt;Valor&lt;/span&gt;" style="text;whiteSpace=wrap;html=1;align=right;" parent="PDVYzoY3RleATE-HyURN-399" vertex="1">
          <mxGeometry x="30" y="110" width="78" height="30" as="geometry" />
        </mxCell>
        <mxCell id="PDVYzoY3RleATE-HyURN-405" value="" style="group" parent="PDVYzoY3RleATE-HyURN-399" connectable="0" vertex="1">
          <mxGeometry x="150" y="56.5" width="530" height="30" as="geometry" />
        </mxCell>
        <mxCell id="PDVYzoY3RleATE-HyURN-406" value="" style="strokeWidth=1;shadow=0;dashed=0;align=center;html=1;shape=mxgraph.mockup.forms.pwField;strokeColor=#999999;mainText=;align=left;fontColor=#666666;fontSize=17;spacingLeft=3;" parent="PDVYzoY3RleATE-HyURN-405" vertex="1">
          <mxGeometry width="530" height="30" as="geometry" />
        </mxCell>
        <mxCell id="PDVYzoY3RleATE-HyURN-407" value="" style="group" parent="PDVYzoY3RleATE-HyURN-405" connectable="0" vertex="1">
          <mxGeometry x="500" width="30" height="30" as="geometry" />
        </mxCell>
        <mxCell id="PDVYzoY3RleATE-HyURN-408" value="" style="whiteSpace=wrap;html=1;aspect=fixed;shadow=0;dashed=0;strokeColor=#999999;strokeWidth=1;align=left;verticalAlign=middle;spacingLeft=3;fontFamily=Helvetica;fontSize=17;fontColor=#666666;fillColor=default;" parent="PDVYzoY3RleATE-HyURN-407" vertex="1">
          <mxGeometry width="30" height="30" as="geometry" />
        </mxCell>
        <mxCell id="PDVYzoY3RleATE-HyURN-409" value="" style="triangle;whiteSpace=wrap;html=1;rotation=90;shadow=0;dashed=0;strokeColor=#666666;strokeWidth=1;align=left;verticalAlign=middle;spacingLeft=3;fontFamily=Helvetica;fontSize=17;fontColor=#333333;fillColor=#f5f5f5;" parent="PDVYzoY3RleATE-HyURN-407" vertex="1">
          <mxGeometry x="8.5" y="7" width="13" height="16" as="geometry" />
        </mxCell>
        <mxCell id="PDVYzoY3RleATE-HyURN-410" value="" style="group" parent="PDVYzoY3RleATE-HyURN-399" connectable="0" vertex="1">
          <mxGeometry x="150" y="110" width="530" height="30" as="geometry" />
        </mxCell>
        <mxCell id="PDVYzoY3RleATE-HyURN-411" value="" style="strokeWidth=1;shadow=0;dashed=0;align=center;html=1;shape=mxgraph.mockup.forms.pwField;strokeColor=#999999;mainText=;align=left;fontColor=#666666;fontSize=17;spacingLeft=3;" parent="PDVYzoY3RleATE-HyURN-410" vertex="1">
          <mxGeometry width="530" height="30" as="geometry" />
        </mxCell>
        <mxCell id="PDVYzoY3RleATE-HyURN-415" style="edgeStyle=orthogonalEdgeStyle;rounded=0;orthogonalLoop=1;jettySize=auto;html=1;entryX=0.003;entryY=0.54;entryDx=0;entryDy=0;entryPerimeter=0;dashed=1;dashPattern=1 1;strokeColor=#999999;align=center;verticalAlign=middle;fontFamily=Helvetica;fontSize=12;fontColor=default;labelBackgroundColor=default;endArrow=none;endFill=0;fillColor=none;strokeWidth=0;" parent="1" source="PDVYzoY3RleATE-HyURN-382" target="PDVYzoY3RleATE-HyURN-400" edge="1">
          <mxGeometry relative="1" as="geometry">
            <Array as="points">
              <mxPoint x="-567" y="5970" />
              <mxPoint x="97" y="5970" />
              <mxPoint x="97" y="5870" />
            </Array>
          </mxGeometry>
        </mxCell>
        <mxCell id="PDVYzoY3RleATE-HyURN-416" style="edgeStyle=orthogonalEdgeStyle;rounded=0;orthogonalLoop=1;jettySize=auto;html=1;dashed=1;dashPattern=1 1;strokeColor=#999999;align=center;verticalAlign=middle;fontFamily=Helvetica;fontSize=12;fontColor=default;labelBackgroundColor=default;endArrow=none;endFill=0;fillColor=none;strokeWidth=0;" parent="1" source="PDVYzoY3RleATE-HyURN-395" target="PDVYzoY3RleATE-HyURN-400" edge="1">
          <mxGeometry relative="1" as="geometry">
            <Array as="points">
              <mxPoint x="-331" y="5943" />
              <mxPoint x="67" y="5943" />
              <mxPoint x="67" y="5830" />
            </Array>
          </mxGeometry>
        </mxCell>
        <mxCell id="PDVYzoY3RleATE-HyURN-430" value="" style="group;absoluteArcSize=0;" parent="1" connectable="0" vertex="1">
          <mxGeometry x="-699" y="6041" width="700" height="450" as="geometry" />
        </mxCell>
        <mxCell id="PDVYzoY3RleATE-HyURN-431" value="JanelaReservas" style="strokeWidth=1;shadow=0;dashed=0;align=center;html=1;shape=mxgraph.mockup.containers.window;align=left;verticalAlign=top;spacingLeft=8;strokeColor2=#008cff;strokeColor3=#c4c4c4;fontColor=#666666;mainText=;fontSize=17;labelBackgroundColor=none;whiteSpace=wrap;" parent="PDVYzoY3RleATE-HyURN-430" vertex="1">
          <mxGeometry width="700" height="450" as="geometry" />
        </mxCell>
        <mxCell id="PDVYzoY3RleATE-HyURN-432" value="Voltar" style="strokeWidth=1;shadow=0;dashed=0;align=center;html=1;shape=mxgraph.mockup.buttons.button;mainText=;buttonStyle=round;fontSize=14;fontStyle=0;whiteSpace=wrap;fillColor=#f5f5f5;fontColor=#333333;strokeColor=#666666;" parent="PDVYzoY3RleATE-HyURN-430" vertex="1">
          <mxGeometry x="535" y="387" width="150" height="50" as="geometry" />
        </mxCell>
        <mxCell id="PDVYzoY3RleATE-HyURN-433" value="Anular Reserva" style="strokeWidth=1;shadow=0;dashed=0;align=center;html=1;shape=mxgraph.mockup.buttons.button;mainText=;buttonStyle=round;fontSize=14;fontStyle=0;whiteSpace=wrap;fillColor=#f5f5f5;fontColor=#333333;strokeColor=#666666;" parent="PDVYzoY3RleATE-HyURN-430" vertex="1">
          <mxGeometry x="535" y="41" width="150" height="50" as="geometry" />
        </mxCell>
        <mxCell id="PDVYzoY3RleATE-HyURN-435" value="" style="group" parent="PDVYzoY3RleATE-HyURN-430" connectable="0" vertex="1">
          <mxGeometry x="14" y="41" width="510" height="396" as="geometry" />
        </mxCell>
        <mxCell id="PDVYzoY3RleATE-HyURN-436" value="" style="strokeWidth=1;shadow=0;dashed=0;align=center;html=1;shape=mxgraph.mockup.forms.rrect;rSize=0;strokeColor=#999999;fillColor=#ffffff;fontSize=12;" parent="PDVYzoY3RleATE-HyURN-435" vertex="1">
          <mxGeometry width="87" height="396" as="geometry" />
        </mxCell>
        <mxCell id="PDVYzoY3RleATE-HyURN-437" value="Cod" style="strokeWidth=1;shadow=0;dashed=0;align=center;html=1;shape=mxgraph.mockup.forms.rrect;rSize=0;strokeColor=#999999;fontColor=#008cff;fontSize=15;fillColor=#ffffff;resizeWidth=1;whiteSpace=wrap;" parent="PDVYzoY3RleATE-HyURN-436" vertex="1">
          <mxGeometry width="87" height="30" relative="1" as="geometry">
            <mxPoint y="-1" as="offset" />
          </mxGeometry>
        </mxCell>
        <mxCell id="PDVYzoY3RleATE-HyURN-438" value="123" style="strokeWidth=1;shadow=0;dashed=0;align=center;html=1;shape=mxgraph.mockup.forms.anchor;fontSize=15;fontColor=#666666;align=left;spacingLeft=5;resizeWidth=1;whiteSpace=wrap;" parent="PDVYzoY3RleATE-HyURN-436" vertex="1">
          <mxGeometry width="87" height="20" relative="1" as="geometry">
            <mxPoint y="30" as="offset" />
          </mxGeometry>
        </mxCell>
        <mxCell id="PDVYzoY3RleATE-HyURN-439" value="456" style="strokeWidth=1;shadow=0;dashed=0;align=center;html=1;shape=mxgraph.mockup.forms.anchor;fontSize=15;fontColor=#666666;align=left;spacingLeft=5;resizeWidth=1;whiteSpace=wrap;" parent="PDVYzoY3RleATE-HyURN-436" vertex="1">
          <mxGeometry width="87" height="20" relative="1" as="geometry">
            <mxPoint y="50" as="offset" />
          </mxGeometry>
        </mxCell>
        <mxCell id="PDVYzoY3RleATE-HyURN-440" value="789" style="strokeWidth=1;shadow=0;dashed=0;align=center;html=1;shape=mxgraph.mockup.forms.rrect;rSize=0;fontSize=15;fontColor=#666666;align=left;spacingLeft=5;fillColor=#ddeeff;strokeColor=none;resizeWidth=1;whiteSpace=wrap;" parent="PDVYzoY3RleATE-HyURN-436" vertex="1">
          <mxGeometry width="87" height="20" relative="1" as="geometry">
            <mxPoint y="70" as="offset" />
          </mxGeometry>
        </mxCell>
        <mxCell id="PDVYzoY3RleATE-HyURN-441" value="234" style="strokeWidth=1;shadow=0;dashed=0;align=center;html=1;shape=mxgraph.mockup.forms.anchor;fontSize=15;fontColor=#666666;align=left;spacingLeft=5;resizeWidth=1;whiteSpace=wrap;" parent="PDVYzoY3RleATE-HyURN-436" vertex="1">
          <mxGeometry width="87" height="20" relative="1" as="geometry">
            <mxPoint y="90" as="offset" />
          </mxGeometry>
        </mxCell>
        <mxCell id="PDVYzoY3RleATE-HyURN-442" value="" style="strokeWidth=1;shadow=0;dashed=0;align=center;shape=mxgraph.mockup.forms.rrect;rSize=0;strokeColor=#999999;fillColor=#ffffff;fontSize=11;html=1;" parent="PDVYzoY3RleATE-HyURN-435" vertex="1">
          <mxGeometry x="87" width="218" height="396" as="geometry" />
        </mxCell>
        <mxCell id="PDVYzoY3RleATE-HyURN-443" value="Nome" style="strokeWidth=1;shadow=0;dashed=0;align=center;html=1;shape=mxgraph.mockup.forms.rrect;rSize=0;strokeColor=#999999;fontColor=#008cff;fontSize=15;fillColor=#ffffff;resizeWidth=1;whiteSpace=wrap;" parent="PDVYzoY3RleATE-HyURN-442" vertex="1">
          <mxGeometry width="218" height="30" relative="1" as="geometry">
            <mxPoint y="-1" as="offset" />
          </mxGeometry>
        </mxCell>
        <mxCell id="PDVYzoY3RleATE-HyURN-444" value="Livro 1" style="strokeWidth=1;shadow=0;dashed=0;align=center;html=1;shape=mxgraph.mockup.forms.anchor;fontSize=15;fontColor=#666666;align=left;spacingLeft=5;resizeWidth=1;whiteSpace=wrap;" parent="PDVYzoY3RleATE-HyURN-442" vertex="1">
          <mxGeometry width="218" height="20" relative="1" as="geometry">
            <mxPoint y="30" as="offset" />
          </mxGeometry>
        </mxCell>
        <mxCell id="PDVYzoY3RleATE-HyURN-445" value="Livro 2" style="strokeWidth=1;shadow=0;dashed=0;align=center;html=1;shape=mxgraph.mockup.forms.anchor;fontSize=15;fontColor=#666666;align=left;spacingLeft=5;resizeWidth=1;whiteSpace=wrap;" parent="PDVYzoY3RleATE-HyURN-442" vertex="1">
          <mxGeometry width="218" height="20" relative="1" as="geometry">
            <mxPoint y="50" as="offset" />
          </mxGeometry>
        </mxCell>
        <mxCell id="PDVYzoY3RleATE-HyURN-446" value="Livro 3" style="strokeWidth=1;shadow=0;dashed=0;align=center;html=1;shape=mxgraph.mockup.forms.rrect;rSize=0;fontSize=15;fontColor=#666666;align=left;spacingLeft=5;fillColor=#ddeeff;strokeColor=none;resizeWidth=1;whiteSpace=wrap;" parent="PDVYzoY3RleATE-HyURN-442" vertex="1">
          <mxGeometry width="218" height="20" relative="1" as="geometry">
            <mxPoint y="70" as="offset" />
          </mxGeometry>
        </mxCell>
        <mxCell id="PDVYzoY3RleATE-HyURN-447" value="Livro 4" style="strokeWidth=1;shadow=0;dashed=0;align=center;html=1;shape=mxgraph.mockup.forms.anchor;fontSize=15;fontColor=#666666;align=left;spacingLeft=5;resizeWidth=1;whiteSpace=wrap;" parent="PDVYzoY3RleATE-HyURN-442" vertex="1">
          <mxGeometry width="218" height="20" relative="1" as="geometry">
            <mxPoint y="90" as="offset" />
          </mxGeometry>
        </mxCell>
        <mxCell id="PDVYzoY3RleATE-HyURN-448" value="" style="strokeWidth=1;shadow=0;dashed=0;align=center;html=1;shape=mxgraph.mockup.forms.rrect;rSize=0;strokeColor=#999999;fillColor=#ffffff;fontSize=12;" parent="PDVYzoY3RleATE-HyURN-435" vertex="1">
          <mxGeometry x="305" width="87" height="396" as="geometry" />
        </mxCell>
        <mxCell id="PDVYzoY3RleATE-HyURN-449" value="&lt;font style=&quot;font-size: 15px;&quot;&gt;Sócio&lt;/font&gt;" style="strokeWidth=1;shadow=0;dashed=0;align=center;html=1;shape=mxgraph.mockup.forms.rrect;rSize=0;strokeColor=#999999;fontColor=#008cff;fontSize=17;fillColor=#ffffff;resizeWidth=1;whiteSpace=wrap;" parent="PDVYzoY3RleATE-HyURN-448" vertex="1">
          <mxGeometry width="87" height="30" relative="1" as="geometry">
            <mxPoint y="-1" as="offset" />
          </mxGeometry>
        </mxCell>
        <mxCell id="PDVYzoY3RleATE-HyURN-450" value="10001" style="strokeWidth=1;shadow=0;dashed=0;align=center;html=1;shape=mxgraph.mockup.forms.anchor;fontSize=15;fontColor=#666666;align=left;spacingLeft=5;resizeWidth=1;whiteSpace=wrap;" parent="PDVYzoY3RleATE-HyURN-448" vertex="1">
          <mxGeometry width="87" height="20" relative="1" as="geometry">
            <mxPoint y="30" as="offset" />
          </mxGeometry>
        </mxCell>
        <mxCell id="PDVYzoY3RleATE-HyURN-451" value="10002" style="strokeWidth=1;shadow=0;dashed=0;align=center;html=1;shape=mxgraph.mockup.forms.anchor;fontSize=15;fontColor=#666666;align=left;spacingLeft=5;resizeWidth=1;whiteSpace=wrap;" parent="PDVYzoY3RleATE-HyURN-448" vertex="1">
          <mxGeometry width="87" height="20" relative="1" as="geometry">
            <mxPoint y="50" as="offset" />
          </mxGeometry>
        </mxCell>
        <mxCell id="PDVYzoY3RleATE-HyURN-452" value="10003" style="strokeWidth=1;shadow=0;dashed=0;align=center;html=1;shape=mxgraph.mockup.forms.rrect;rSize=0;fontSize=15;fontColor=#666666;align=left;spacingLeft=5;fillColor=#ddeeff;strokeColor=none;resizeWidth=1;whiteSpace=wrap;" parent="PDVYzoY3RleATE-HyURN-448" vertex="1">
          <mxGeometry width="87" height="20" relative="1" as="geometry">
            <mxPoint y="70" as="offset" />
          </mxGeometry>
        </mxCell>
        <mxCell id="PDVYzoY3RleATE-HyURN-453" value="10004" style="strokeWidth=1;shadow=0;dashed=0;align=center;html=1;shape=mxgraph.mockup.forms.anchor;fontSize=15;fontColor=#666666;align=left;spacingLeft=5;resizeWidth=1;whiteSpace=wrap;" parent="PDVYzoY3RleATE-HyURN-448" vertex="1">
          <mxGeometry width="87" height="20" relative="1" as="geometry">
            <mxPoint y="90" as="offset" />
          </mxGeometry>
        </mxCell>
        <mxCell id="PDVYzoY3RleATE-HyURN-454" value="" style="strokeWidth=1;shadow=0;dashed=0;align=center;html=1;shape=mxgraph.mockup.forms.rrect;rSize=0;strokeColor=#999999;fillColor=#ffffff;fontSize=12;" parent="PDVYzoY3RleATE-HyURN-435" vertex="1">
          <mxGeometry x="392" width="98" height="396" as="geometry" />
        </mxCell>
        <mxCell id="PDVYzoY3RleATE-HyURN-455" value="&lt;font style=&quot;font-size: 15px;&quot;&gt;Data&lt;/font&gt;" style="strokeWidth=1;shadow=0;dashed=0;align=center;html=1;shape=mxgraph.mockup.forms.rrect;rSize=0;strokeColor=#999999;fontColor=#008cff;fontSize=17;fillColor=#ffffff;resizeWidth=1;whiteSpace=wrap;" parent="PDVYzoY3RleATE-HyURN-454" vertex="1">
          <mxGeometry width="97.99999999999999" height="30" relative="1" as="geometry">
            <mxPoint y="-1" as="offset" />
          </mxGeometry>
        </mxCell>
        <mxCell id="PDVYzoY3RleATE-HyURN-456" value="27/04/2024" style="strokeWidth=1;shadow=0;dashed=0;align=center;html=1;shape=mxgraph.mockup.forms.anchor;fontSize=15;fontColor=#666666;align=left;spacingLeft=5;resizeWidth=1;whiteSpace=wrap;" parent="PDVYzoY3RleATE-HyURN-454" vertex="1">
          <mxGeometry width="97.99999999999999" height="20" relative="1" as="geometry">
            <mxPoint y="30" as="offset" />
          </mxGeometry>
        </mxCell>
        <mxCell id="PDVYzoY3RleATE-HyURN-457" value="20/04/2024" style="strokeWidth=1;shadow=0;dashed=0;align=center;html=1;shape=mxgraph.mockup.forms.anchor;fontSize=15;fontColor=#666666;align=left;spacingLeft=5;resizeWidth=1;whiteSpace=wrap;" parent="PDVYzoY3RleATE-HyURN-454" vertex="1">
          <mxGeometry width="97.99999999999999" height="20" relative="1" as="geometry">
            <mxPoint y="50" as="offset" />
          </mxGeometry>
        </mxCell>
        <mxCell id="PDVYzoY3RleATE-HyURN-458" value="21/04/2024" style="strokeWidth=1;shadow=0;dashed=0;align=center;html=1;shape=mxgraph.mockup.forms.rrect;rSize=0;fontSize=15;fontColor=#666666;align=left;spacingLeft=5;fillColor=#ddeeff;strokeColor=none;resizeWidth=1;whiteSpace=wrap;" parent="PDVYzoY3RleATE-HyURN-454" vertex="1">
          <mxGeometry width="97.99999999999999" height="20" relative="1" as="geometry">
            <mxPoint y="70" as="offset" />
          </mxGeometry>
        </mxCell>
        <mxCell id="PDVYzoY3RleATE-HyURN-459" value="20/04/2024" style="strokeWidth=1;shadow=0;dashed=0;align=center;html=1;shape=mxgraph.mockup.forms.anchor;fontSize=15;fontColor=#666666;align=left;spacingLeft=5;resizeWidth=1;whiteSpace=wrap;" parent="PDVYzoY3RleATE-HyURN-454" vertex="1">
          <mxGeometry width="97.99999999999999" height="20" relative="1" as="geometry">
            <mxPoint y="90" as="offset" />
          </mxGeometry>
        </mxCell>
        <mxCell id="PDVYzoY3RleATE-HyURN-460" value="" style="verticalLabelPosition=bottom;shadow=0;dashed=0;align=center;html=1;verticalAlign=top;strokeWidth=1;shape=mxgraph.mockup.navigation.scrollBar;strokeColor=#999999;barPos=41.751;fillColor2=#99ddff;strokeColor2=none;direction=north;fillColor=default;" parent="PDVYzoY3RleATE-HyURN-435" vertex="1">
          <mxGeometry x="490" y="-1" width="20" height="397" as="geometry" />
        </mxCell>
        <mxCell id="PDVYzoY3RleATE-HyURN-461" value="" style="group" parent="1" connectable="0" vertex="1">
          <mxGeometry x="193" y="6175" width="700" height="200" as="geometry" />
        </mxCell>
        <mxCell id="PDVYzoY3RleATE-HyURN-462" value="JanelaAnularReserva" style="strokeWidth=1;shadow=0;dashed=0;align=center;html=1;shape=mxgraph.mockup.containers.window;align=left;verticalAlign=top;spacingLeft=8;strokeColor2=#008cff;strokeColor3=#c4c4c4;fontColor=#666666;mainText=;fontSize=17;labelBackgroundColor=none;whiteSpace=wrap;" parent="PDVYzoY3RleATE-HyURN-461" vertex="1">
          <mxGeometry width="700" height="200" as="geometry" />
        </mxCell>
        <mxCell id="PDVYzoY3RleATE-HyURN-463" value="Voltar" style="strokeWidth=1;shadow=0;dashed=0;align=center;html=1;shape=mxgraph.mockup.buttons.button;mainText=;buttonStyle=round;fontSize=14;fontStyle=0;whiteSpace=wrap;fillColor=#f5f5f5;fontColor=#333333;strokeColor=#666666;" parent="PDVYzoY3RleATE-HyURN-461" vertex="1">
          <mxGeometry x="530" y="123" width="150" height="50" as="geometry" />
        </mxCell>
        <mxCell id="PDVYzoY3RleATE-HyURN-464" value="Submeter" style="strokeWidth=1;shadow=0;dashed=0;align=center;html=1;shape=mxgraph.mockup.buttons.button;mainText=;buttonStyle=round;fontSize=14;fontStyle=0;whiteSpace=wrap;fillColor=#f5f5f5;fontColor=#333333;strokeColor=#666666;" parent="PDVYzoY3RleATE-HyURN-461" vertex="1">
          <mxGeometry x="362" y="123" width="150" height="50" as="geometry" />
        </mxCell>
        <mxCell id="PDVYzoY3RleATE-HyURN-465" value="&lt;span style=&quot;color: rgb(102, 102, 102); font-family: Helvetica; font-size: 17px; font-style: normal; font-variant-ligatures: normal; font-variant-caps: normal; font-weight: 400; letter-spacing: normal; orphans: 2; text-indent: 0px; text-transform: none; widows: 2; word-spacing: 0px; -webkit-text-stroke-width: 0px; white-space: normal; background-color: rgb(255, 255, 255); text-decoration-thickness: initial; text-decoration-style: initial; text-decoration-color: initial; float: none; display: inline !important;&quot;&gt;Código&lt;/span&gt;" style="text;whiteSpace=wrap;html=1;align=right;" parent="PDVYzoY3RleATE-HyURN-461" vertex="1">
          <mxGeometry x="25" y="55" width="88" height="30" as="geometry" />
        </mxCell>
        <mxCell id="PDVYzoY3RleATE-HyURN-466" value="" style="group" parent="PDVYzoY3RleATE-HyURN-461" connectable="0" vertex="1">
          <mxGeometry x="150" y="56.5" width="530" height="30" as="geometry" />
        </mxCell>
        <mxCell id="PDVYzoY3RleATE-HyURN-467" value="" style="strokeWidth=1;shadow=0;dashed=0;align=center;html=1;shape=mxgraph.mockup.forms.pwField;strokeColor=#999999;mainText=;align=left;fontColor=#666666;fontSize=17;spacingLeft=3;" parent="PDVYzoY3RleATE-HyURN-466" vertex="1">
          <mxGeometry width="530" height="30" as="geometry" />
        </mxCell>
        <mxCell id="PDVYzoY3RleATE-HyURN-468" value="" style="group" parent="PDVYzoY3RleATE-HyURN-466" connectable="0" vertex="1">
          <mxGeometry x="500" width="30" height="30" as="geometry" />
        </mxCell>
        <mxCell id="PDVYzoY3RleATE-HyURN-469" value="" style="whiteSpace=wrap;html=1;aspect=fixed;shadow=0;dashed=0;strokeColor=#999999;strokeWidth=1;align=left;verticalAlign=middle;spacingLeft=3;fontFamily=Helvetica;fontSize=17;fontColor=#666666;fillColor=default;" parent="PDVYzoY3RleATE-HyURN-468" vertex="1">
          <mxGeometry width="30" height="30" as="geometry" />
        </mxCell>
        <mxCell id="PDVYzoY3RleATE-HyURN-470" value="" style="triangle;whiteSpace=wrap;html=1;rotation=90;shadow=0;dashed=0;strokeColor=#666666;strokeWidth=1;align=left;verticalAlign=middle;spacingLeft=3;fontFamily=Helvetica;fontSize=17;fontColor=#333333;fillColor=#f5f5f5;" parent="PDVYzoY3RleATE-HyURN-468" vertex="1">
          <mxGeometry x="8.5" y="7" width="13" height="16" as="geometry" />
        </mxCell>
        <mxCell id="PDVYzoY3RleATE-HyURN-471" style="edgeStyle=orthogonalEdgeStyle;rounded=0;orthogonalLoop=1;jettySize=auto;html=1;entryX=-0.001;entryY=0.534;entryDx=0;entryDy=0;entryPerimeter=0;dashed=1;dashPattern=1 1;strokeColor=#999999;align=center;verticalAlign=middle;fontFamily=Helvetica;fontSize=12;fontColor=default;labelBackgroundColor=default;endArrow=none;endFill=0;fillColor=none;strokeWidth=0;" parent="1" source="PDVYzoY3RleATE-HyURN-433" target="PDVYzoY3RleATE-HyURN-462" edge="1">
          <mxGeometry relative="1" as="geometry" />
        </mxCell>
        <mxCell id="PDVYzoY3RleATE-HyURN-472" style="edgeStyle=orthogonalEdgeStyle;rounded=0;orthogonalLoop=1;jettySize=auto;html=1;entryX=0.004;entryY=0.504;entryDx=0;entryDy=0;entryPerimeter=0;dashed=1;strokeColor=#999999;align=center;verticalAlign=middle;fontFamily=Helvetica;fontSize=12;fontColor=default;labelBackgroundColor=default;endArrow=none;endFill=0;fillColor=none;strokeWidth=0;" parent="1" source="PDVYzoY3RleATE-HyURN-52" target="PDVYzoY3RleATE-HyURN-431" edge="1">
          <mxGeometry relative="1" as="geometry">
            <Array as="points">
              <mxPoint x="-437" y="4318" />
              <mxPoint x="-885" y="4318" />
              <mxPoint x="-885" y="6268" />
            </Array>
          </mxGeometry>
        </mxCell>
        <mxCell id="PDVYzoY3RleATE-HyURN-566" value="" style="group" parent="1" connectable="0" vertex="1">
          <mxGeometry x="-699" y="6543" width="700" height="589" as="geometry" />
        </mxCell>
        <mxCell id="PDVYzoY3RleATE-HyURN-502" value="JanelaCriarLivro" style="strokeWidth=1;shadow=0;dashed=0;align=center;html=1;shape=mxgraph.mockup.containers.window;align=left;verticalAlign=top;spacingLeft=8;strokeColor2=#008cff;strokeColor3=#c4c4c4;fontColor=#666666;mainText=;fontSize=17;labelBackgroundColor=none;whiteSpace=wrap;" parent="PDVYzoY3RleATE-HyURN-566" vertex="1">
          <mxGeometry width="700" height="589" as="geometry" />
        </mxCell>
        <mxCell id="PDVYzoY3RleATE-HyURN-503" value="Voltar" style="strokeWidth=1;shadow=0;dashed=0;align=center;html=1;shape=mxgraph.mockup.buttons.button;mainText=;buttonStyle=round;fontSize=14;fontStyle=0;whiteSpace=wrap;fillColor=#f5f5f5;fontColor=#333333;strokeColor=#666666;" parent="PDVYzoY3RleATE-HyURN-566" vertex="1">
          <mxGeometry x="533" y="517" width="150" height="50" as="geometry" />
        </mxCell>
        <mxCell id="PDVYzoY3RleATE-HyURN-504" value="Submeter" style="strokeWidth=1;shadow=0;dashed=0;align=center;html=1;shape=mxgraph.mockup.buttons.button;mainText=;buttonStyle=round;fontSize=14;fontStyle=0;whiteSpace=wrap;fillColor=#f5f5f5;fontColor=#333333;strokeColor=#666666;" parent="PDVYzoY3RleATE-HyURN-566" vertex="1">
          <mxGeometry x="365" y="517" width="150" height="50" as="geometry" />
        </mxCell>
        <mxCell id="PDVYzoY3RleATE-HyURN-505" value="&lt;span style=&quot;color: rgb(102, 102, 102); font-family: Helvetica; font-size: 17px; font-style: normal; font-variant-ligatures: normal; font-variant-caps: normal; font-weight: 400; letter-spacing: normal; orphans: 2; text-indent: 0px; text-transform: none; widows: 2; word-spacing: 0px; -webkit-text-stroke-width: 0px; white-space: normal; background-color: rgb(255, 255, 255); text-decoration-thickness: initial; text-decoration-style: initial; text-decoration-color: initial; float: none; display: inline !important;&quot;&gt;Titulo&lt;/span&gt;" style="text;whiteSpace=wrap;html=1;align=right;" parent="PDVYzoY3RleATE-HyURN-566" vertex="1">
          <mxGeometry x="43" y="54.5" width="88" height="30" as="geometry" />
        </mxCell>
        <mxCell id="PDVYzoY3RleATE-HyURN-506" value="&lt;span style=&quot;color: rgb(102, 102, 102); font-family: Helvetica; font-size: 17px; font-style: normal; font-variant-ligatures: normal; font-variant-caps: normal; font-weight: 400; letter-spacing: normal; orphans: 2; text-indent: 0px; text-transform: none; widows: 2; word-spacing: 0px; -webkit-text-stroke-width: 0px; white-space: normal; background-color: rgb(255, 255, 255); text-decoration-thickness: initial; text-decoration-style: initial; text-decoration-color: initial; float: none; display: inline !important;&quot;&gt;Editora&lt;/span&gt;" style="text;whiteSpace=wrap;html=1;align=right;" parent="PDVYzoY3RleATE-HyURN-566" vertex="1">
          <mxGeometry x="48" y="109.5" width="78" height="30" as="geometry" />
        </mxCell>
        <mxCell id="PDVYzoY3RleATE-HyURN-507" value="" style="group" parent="PDVYzoY3RleATE-HyURN-566" connectable="0" vertex="1">
          <mxGeometry x="150" y="56.5" width="530" height="30" as="geometry" />
        </mxCell>
        <mxCell id="PDVYzoY3RleATE-HyURN-508" value="" style="strokeWidth=1;shadow=0;dashed=0;align=center;html=1;shape=mxgraph.mockup.forms.pwField;strokeColor=#999999;mainText=;align=left;fontColor=#666666;fontSize=17;spacingLeft=3;" parent="PDVYzoY3RleATE-HyURN-507" vertex="1">
          <mxGeometry width="530" height="30" as="geometry" />
        </mxCell>
        <mxCell id="PDVYzoY3RleATE-HyURN-509" value="" style="group" parent="PDVYzoY3RleATE-HyURN-507" connectable="0" vertex="1">
          <mxGeometry x="500" width="30" height="30" as="geometry" />
        </mxCell>
        <mxCell id="PDVYzoY3RleATE-HyURN-510" value="" style="whiteSpace=wrap;html=1;aspect=fixed;shadow=0;dashed=0;strokeColor=#999999;strokeWidth=1;align=left;verticalAlign=middle;spacingLeft=3;fontFamily=Helvetica;fontSize=17;fontColor=#666666;fillColor=default;" parent="PDVYzoY3RleATE-HyURN-509" vertex="1">
          <mxGeometry width="30" height="30" as="geometry" />
        </mxCell>
        <mxCell id="PDVYzoY3RleATE-HyURN-511" value="" style="triangle;whiteSpace=wrap;html=1;rotation=90;shadow=0;dashed=0;strokeColor=#666666;strokeWidth=1;align=left;verticalAlign=middle;spacingLeft=3;fontFamily=Helvetica;fontSize=17;fontColor=#333333;fillColor=#f5f5f5;" parent="PDVYzoY3RleATE-HyURN-509" vertex="1">
          <mxGeometry x="8.5" y="7" width="13" height="16" as="geometry" />
        </mxCell>
        <mxCell id="PDVYzoY3RleATE-HyURN-515" value="" style="group" parent="PDVYzoY3RleATE-HyURN-566" connectable="0" vertex="1">
          <mxGeometry x="150" y="109" width="530" height="30" as="geometry" />
        </mxCell>
        <mxCell id="PDVYzoY3RleATE-HyURN-516" value="" style="strokeWidth=1;shadow=0;dashed=0;align=center;html=1;shape=mxgraph.mockup.forms.pwField;strokeColor=#999999;mainText=;align=left;fontColor=#666666;fontSize=17;spacingLeft=3;" parent="PDVYzoY3RleATE-HyURN-515" vertex="1">
          <mxGeometry width="530" height="30" as="geometry" />
        </mxCell>
        <mxCell id="PDVYzoY3RleATE-HyURN-517" value="" style="group" parent="PDVYzoY3RleATE-HyURN-515" connectable="0" vertex="1">
          <mxGeometry x="500" width="30" height="30" as="geometry" />
        </mxCell>
        <mxCell id="PDVYzoY3RleATE-HyURN-518" value="" style="whiteSpace=wrap;html=1;aspect=fixed;shadow=0;dashed=0;strokeColor=#999999;strokeWidth=1;align=left;verticalAlign=middle;spacingLeft=3;fontFamily=Helvetica;fontSize=17;fontColor=#666666;fillColor=default;" parent="PDVYzoY3RleATE-HyURN-517" vertex="1">
          <mxGeometry width="30" height="30" as="geometry" />
        </mxCell>
        <mxCell id="PDVYzoY3RleATE-HyURN-519" value="" style="triangle;whiteSpace=wrap;html=1;rotation=90;shadow=0;dashed=0;strokeColor=#666666;strokeWidth=1;align=left;verticalAlign=middle;spacingLeft=3;fontFamily=Helvetica;fontSize=17;fontColor=#333333;fillColor=#f5f5f5;" parent="PDVYzoY3RleATE-HyURN-517" vertex="1">
          <mxGeometry x="8.5" y="7" width="13" height="16" as="geometry" />
        </mxCell>
        <mxCell id="PDVYzoY3RleATE-HyURN-520" value="&lt;span style=&quot;color: rgb(102, 102, 102); font-family: Helvetica; font-size: 17px; font-style: normal; font-variant-ligatures: normal; font-variant-caps: normal; font-weight: 400; letter-spacing: normal; orphans: 2; text-indent: 0px; text-transform: none; widows: 2; word-spacing: 0px; -webkit-text-stroke-width: 0px; white-space: normal; background-color: rgb(255, 255, 255); text-decoration-thickness: initial; text-decoration-style: initial; text-decoration-color: initial; float: none; display: inline !important;&quot;&gt;Autor&lt;/span&gt;" style="text;whiteSpace=wrap;html=1;align=right;" parent="PDVYzoY3RleATE-HyURN-566" vertex="1">
          <mxGeometry x="48" y="164.5" width="78" height="30" as="geometry" />
        </mxCell>
        <mxCell id="PDVYzoY3RleATE-HyURN-521" value="" style="group" parent="PDVYzoY3RleATE-HyURN-566" connectable="0" vertex="1">
          <mxGeometry x="150" y="164" width="530" height="30" as="geometry" />
        </mxCell>
        <mxCell id="PDVYzoY3RleATE-HyURN-522" value="" style="strokeWidth=1;shadow=0;dashed=0;align=center;html=1;shape=mxgraph.mockup.forms.pwField;strokeColor=#999999;mainText=;align=left;fontColor=#666666;fontSize=17;spacingLeft=3;" parent="PDVYzoY3RleATE-HyURN-521" vertex="1">
          <mxGeometry width="530" height="30" as="geometry" />
        </mxCell>
        <mxCell id="PDVYzoY3RleATE-HyURN-523" value="" style="group" parent="PDVYzoY3RleATE-HyURN-521" connectable="0" vertex="1">
          <mxGeometry x="500" width="30" height="30" as="geometry" />
        </mxCell>
        <mxCell id="PDVYzoY3RleATE-HyURN-524" value="" style="whiteSpace=wrap;html=1;aspect=fixed;shadow=0;dashed=0;strokeColor=#999999;strokeWidth=1;align=left;verticalAlign=middle;spacingLeft=3;fontFamily=Helvetica;fontSize=17;fontColor=#666666;fillColor=default;" parent="PDVYzoY3RleATE-HyURN-523" vertex="1">
          <mxGeometry width="30" height="30" as="geometry" />
        </mxCell>
        <mxCell id="PDVYzoY3RleATE-HyURN-525" value="" style="triangle;whiteSpace=wrap;html=1;rotation=90;shadow=0;dashed=0;strokeColor=#666666;strokeWidth=1;align=left;verticalAlign=middle;spacingLeft=3;fontFamily=Helvetica;fontSize=17;fontColor=#333333;fillColor=#f5f5f5;" parent="PDVYzoY3RleATE-HyURN-523" vertex="1">
          <mxGeometry x="8.5" y="7" width="13" height="16" as="geometry" />
        </mxCell>
        <mxCell id="PDVYzoY3RleATE-HyURN-526" value="&lt;span style=&quot;color: rgb(102, 102, 102); font-family: Helvetica; font-size: 17px; font-style: normal; font-variant-ligatures: normal; font-variant-caps: normal; font-weight: 400; letter-spacing: normal; orphans: 2; text-indent: 0px; text-transform: none; widows: 2; word-spacing: 0px; -webkit-text-stroke-width: 0px; white-space: normal; background-color: rgb(255, 255, 255); text-decoration-thickness: initial; text-decoration-style: initial; text-decoration-color: initial; float: none; display: inline !important;&quot;&gt;Género&lt;/span&gt;" style="text;whiteSpace=wrap;html=1;align=right;" parent="PDVYzoY3RleATE-HyURN-566" vertex="1">
          <mxGeometry x="48" y="216.5" width="78" height="30" as="geometry" />
        </mxCell>
        <mxCell id="PDVYzoY3RleATE-HyURN-527" value="" style="group" parent="PDVYzoY3RleATE-HyURN-566" connectable="0" vertex="1">
          <mxGeometry x="150" y="216" width="530" height="30" as="geometry" />
        </mxCell>
        <mxCell id="PDVYzoY3RleATE-HyURN-528" value="" style="strokeWidth=1;shadow=0;dashed=0;align=center;html=1;shape=mxgraph.mockup.forms.pwField;strokeColor=#999999;mainText=;align=left;fontColor=#666666;fontSize=17;spacingLeft=3;" parent="PDVYzoY3RleATE-HyURN-527" vertex="1">
          <mxGeometry width="530" height="30" as="geometry" />
        </mxCell>
        <mxCell id="PDVYzoY3RleATE-HyURN-529" value="" style="group" parent="PDVYzoY3RleATE-HyURN-527" connectable="0" vertex="1">
          <mxGeometry x="500" width="30" height="30" as="geometry" />
        </mxCell>
        <mxCell id="PDVYzoY3RleATE-HyURN-530" value="" style="whiteSpace=wrap;html=1;aspect=fixed;shadow=0;dashed=0;strokeColor=#999999;strokeWidth=1;align=left;verticalAlign=middle;spacingLeft=3;fontFamily=Helvetica;fontSize=17;fontColor=#666666;fillColor=default;" parent="PDVYzoY3RleATE-HyURN-529" vertex="1">
          <mxGeometry width="30" height="30" as="geometry" />
        </mxCell>
        <mxCell id="PDVYzoY3RleATE-HyURN-531" value="" style="triangle;whiteSpace=wrap;html=1;rotation=90;shadow=0;dashed=0;strokeColor=#666666;strokeWidth=1;align=left;verticalAlign=middle;spacingLeft=3;fontFamily=Helvetica;fontSize=17;fontColor=#333333;fillColor=#f5f5f5;" parent="PDVYzoY3RleATE-HyURN-529" vertex="1">
          <mxGeometry x="8.5" y="7" width="13" height="16" as="geometry" />
        </mxCell>
        <mxCell id="PDVYzoY3RleATE-HyURN-532" value="&lt;span style=&quot;color: rgb(102, 102, 102); font-family: Helvetica; font-size: 17px; font-style: normal; font-variant-ligatures: normal; font-variant-caps: normal; font-weight: 400; letter-spacing: normal; orphans: 2; text-indent: 0px; text-transform: none; widows: 2; word-spacing: 0px; -webkit-text-stroke-width: 0px; white-space: normal; background-color: rgb(255, 255, 255); text-decoration-thickness: initial; text-decoration-style: initial; text-decoration-color: initial; float: none; display: inline !important;&quot;&gt;Sub-Genero&lt;/span&gt;" style="text;whiteSpace=wrap;html=1;align=right;" parent="PDVYzoY3RleATE-HyURN-566" vertex="1">
          <mxGeometry x="24" y="273.5" width="102" height="30" as="geometry" />
        </mxCell>
        <mxCell id="PDVYzoY3RleATE-HyURN-533" value="" style="group" parent="PDVYzoY3RleATE-HyURN-566" connectable="0" vertex="1">
          <mxGeometry x="150" y="273" width="530" height="30" as="geometry" />
        </mxCell>
        <mxCell id="PDVYzoY3RleATE-HyURN-534" value="" style="strokeWidth=1;shadow=0;dashed=0;align=center;html=1;shape=mxgraph.mockup.forms.pwField;strokeColor=#999999;mainText=;align=left;fontColor=#666666;fontSize=17;spacingLeft=3;" parent="PDVYzoY3RleATE-HyURN-533" vertex="1">
          <mxGeometry width="530" height="30" as="geometry" />
        </mxCell>
        <mxCell id="PDVYzoY3RleATE-HyURN-535" value="" style="group" parent="PDVYzoY3RleATE-HyURN-533" connectable="0" vertex="1">
          <mxGeometry x="500" width="30" height="30" as="geometry" />
        </mxCell>
        <mxCell id="PDVYzoY3RleATE-HyURN-536" value="" style="whiteSpace=wrap;html=1;aspect=fixed;shadow=0;dashed=0;strokeColor=#999999;strokeWidth=1;align=left;verticalAlign=middle;spacingLeft=3;fontFamily=Helvetica;fontSize=17;fontColor=#666666;fillColor=default;" parent="PDVYzoY3RleATE-HyURN-535" vertex="1">
          <mxGeometry width="30" height="30" as="geometry" />
        </mxCell>
        <mxCell id="PDVYzoY3RleATE-HyURN-537" value="" style="triangle;whiteSpace=wrap;html=1;rotation=90;shadow=0;dashed=0;strokeColor=#666666;strokeWidth=1;align=left;verticalAlign=middle;spacingLeft=3;fontFamily=Helvetica;fontSize=17;fontColor=#333333;fillColor=#f5f5f5;" parent="PDVYzoY3RleATE-HyURN-535" vertex="1">
          <mxGeometry x="8.5" y="7" width="13" height="16" as="geometry" />
        </mxCell>
        <mxCell id="PDVYzoY3RleATE-HyURN-543" value="&lt;span style=&quot;color: rgb(102, 102, 102); font-family: Helvetica; font-size: 17px; font-style: normal; font-variant-ligatures: normal; font-variant-caps: normal; font-weight: 400; letter-spacing: normal; orphans: 2; text-indent: 0px; text-transform: none; widows: 2; word-spacing: 0px; -webkit-text-stroke-width: 0px; white-space: normal; background-color: rgb(255, 255, 255); text-decoration-thickness: initial; text-decoration-style: initial; text-decoration-color: initial; float: none; display: inline !important;&quot;&gt;Ano&lt;/span&gt;" style="text;whiteSpace=wrap;html=1;align=right;" parent="PDVYzoY3RleATE-HyURN-566" vertex="1">
          <mxGeometry x="24" y="332.5" width="102" height="30" as="geometry" />
        </mxCell>
        <mxCell id="PDVYzoY3RleATE-HyURN-545" value="" style="strokeWidth=1;shadow=0;dashed=0;align=center;html=1;shape=mxgraph.mockup.forms.pwField;strokeColor=#999999;mainText=;align=left;fontColor=#666666;fontSize=17;spacingLeft=3;" parent="PDVYzoY3RleATE-HyURN-566" vertex="1">
          <mxGeometry x="150.5" y="332.5" width="200" height="30" as="geometry" />
        </mxCell>
        <mxCell id="PDVYzoY3RleATE-HyURN-549" value="&lt;span style=&quot;color: rgb(102, 102, 102); font-family: Helvetica; font-size: 17px; font-style: normal; font-variant-ligatures: normal; font-variant-caps: normal; font-weight: 400; letter-spacing: normal; orphans: 2; text-indent: 0px; text-transform: none; widows: 2; word-spacing: 0px; -webkit-text-stroke-width: 0px; white-space: normal; background-color: rgb(255, 255, 255); text-decoration-thickness: initial; text-decoration-style: initial; text-decoration-color: initial; float: none; display: inline !important;&quot;&gt;Qnt&lt;/span&gt;" style="text;whiteSpace=wrap;html=1;align=right;" parent="PDVYzoY3RleATE-HyURN-566" vertex="1">
          <mxGeometry x="354.5" y="332.5" width="102" height="30" as="geometry" />
        </mxCell>
        <mxCell id="PDVYzoY3RleATE-HyURN-550" value="" style="strokeWidth=1;shadow=0;dashed=0;align=center;html=1;shape=mxgraph.mockup.forms.pwField;strokeColor=#999999;mainText=;align=left;fontColor=#666666;fontSize=17;spacingLeft=3;" parent="PDVYzoY3RleATE-HyURN-566" vertex="1">
          <mxGeometry x="481" y="332.5" width="200" height="30" as="geometry" />
        </mxCell>
        <mxCell id="PDVYzoY3RleATE-HyURN-551" value="&lt;font color=&quot;#666666&quot;&gt;&lt;span style=&quot;font-size: 17px;&quot;&gt;ISBN&lt;/span&gt;&lt;/font&gt;" style="text;whiteSpace=wrap;html=1;align=right;" parent="PDVYzoY3RleATE-HyURN-566" vertex="1">
          <mxGeometry x="24" y="387" width="102" height="30" as="geometry" />
        </mxCell>
        <mxCell id="PDVYzoY3RleATE-HyURN-552" value="" style="strokeWidth=1;shadow=0;dashed=0;align=center;html=1;shape=mxgraph.mockup.forms.pwField;strokeColor=#999999;mainText=;align=left;fontColor=#666666;fontSize=17;spacingLeft=3;" parent="PDVYzoY3RleATE-HyURN-566" vertex="1">
          <mxGeometry x="150.5" y="387" width="200" height="30" as="geometry" />
        </mxCell>
        <mxCell id="PDVYzoY3RleATE-HyURN-553" value="&lt;span style=&quot;color: rgb(102, 102, 102); font-family: Helvetica; font-size: 17px; font-style: normal; font-variant-ligatures: normal; font-variant-caps: normal; font-weight: 400; letter-spacing: normal; orphans: 2; text-indent: 0px; text-transform: none; widows: 2; word-spacing: 0px; -webkit-text-stroke-width: 0px; white-space: normal; background-color: rgb(255, 255, 255); text-decoration-thickness: initial; text-decoration-style: initial; text-decoration-color: initial; float: none; display: inline !important;&quot;&gt;Edição&lt;/span&gt;" style="text;whiteSpace=wrap;html=1;align=right;" parent="PDVYzoY3RleATE-HyURN-566" vertex="1">
          <mxGeometry x="354.5" y="387" width="102" height="30" as="geometry" />
        </mxCell>
        <mxCell id="PDVYzoY3RleATE-HyURN-554" value="" style="strokeWidth=1;shadow=0;dashed=0;align=center;html=1;shape=mxgraph.mockup.forms.pwField;strokeColor=#999999;mainText=;align=left;fontColor=#666666;fontSize=17;spacingLeft=3;" parent="PDVYzoY3RleATE-HyURN-566" vertex="1">
          <mxGeometry x="481" y="387" width="200" height="30" as="geometry" />
        </mxCell>
        <mxCell id="PDVYzoY3RleATE-HyURN-555" value="&lt;span style=&quot;color: rgb(102, 102, 102); font-family: Helvetica; font-size: 17px; font-style: normal; font-variant-ligatures: normal; font-variant-caps: normal; font-weight: 400; letter-spacing: normal; orphans: 2; text-indent: 0px; text-transform: none; widows: 2; word-spacing: 0px; -webkit-text-stroke-width: 0px; white-space: normal; background-color: rgb(255, 255, 255); text-decoration-thickness: initial; text-decoration-style: initial; text-decoration-color: initial; float: none; display: inline !important;&quot;&gt;Estante&lt;/span&gt;" style="text;whiteSpace=wrap;html=1;align=right;" parent="PDVYzoY3RleATE-HyURN-566" vertex="1">
          <mxGeometry x="24" y="437" width="102" height="30" as="geometry" />
        </mxCell>
        <mxCell id="PDVYzoY3RleATE-HyURN-556" value="" style="strokeWidth=1;shadow=0;dashed=0;align=center;html=1;shape=mxgraph.mockup.forms.pwField;strokeColor=#999999;mainText=;align=left;fontColor=#666666;fontSize=17;spacingLeft=3;" parent="PDVYzoY3RleATE-HyURN-566" vertex="1">
          <mxGeometry x="150.5" y="437" width="200" height="30" as="geometry" />
        </mxCell>
        <mxCell id="PDVYzoY3RleATE-HyURN-557" value="&lt;span style=&quot;color: rgb(102, 102, 102); font-family: Helvetica; font-size: 17px; font-style: normal; font-variant-ligatures: normal; font-variant-caps: normal; font-weight: 400; letter-spacing: normal; orphans: 2; text-indent: 0px; text-transform: none; widows: 2; word-spacing: 0px; -webkit-text-stroke-width: 0px; white-space: normal; background-color: rgb(255, 255, 255); text-decoration-thickness: initial; text-decoration-style: initial; text-decoration-color: initial; float: none; display: inline !important;&quot;&gt;Prateleira&lt;/span&gt;" style="text;whiteSpace=wrap;html=1;align=right;" parent="PDVYzoY3RleATE-HyURN-566" vertex="1">
          <mxGeometry x="354.5" y="437" width="102" height="30" as="geometry" />
        </mxCell>
        <mxCell id="PDVYzoY3RleATE-HyURN-558" value="" style="strokeWidth=1;shadow=0;dashed=0;align=center;html=1;shape=mxgraph.mockup.forms.pwField;strokeColor=#999999;mainText=;align=left;fontColor=#666666;fontSize=17;spacingLeft=3;" parent="PDVYzoY3RleATE-HyURN-566" vertex="1">
          <mxGeometry x="481" y="437" width="200" height="30" as="geometry" />
        </mxCell>
        <mxCell id="PDVYzoY3RleATE-HyURN-559" value="" style="group" parent="PDVYzoY3RleATE-HyURN-566" connectable="0" vertex="1">
          <mxGeometry x="653" y="437" width="30" height="30" as="geometry" />
        </mxCell>
        <mxCell id="PDVYzoY3RleATE-HyURN-560" value="" style="whiteSpace=wrap;html=1;aspect=fixed;shadow=0;dashed=0;strokeColor=#999999;strokeWidth=1;align=left;verticalAlign=middle;spacingLeft=3;fontFamily=Helvetica;fontSize=17;fontColor=#666666;fillColor=default;" parent="PDVYzoY3RleATE-HyURN-559" vertex="1">
          <mxGeometry width="30" height="30" as="geometry" />
        </mxCell>
        <mxCell id="PDVYzoY3RleATE-HyURN-561" value="" style="triangle;whiteSpace=wrap;html=1;rotation=90;shadow=0;dashed=0;strokeColor=#666666;strokeWidth=1;align=left;verticalAlign=middle;spacingLeft=3;fontFamily=Helvetica;fontSize=17;fontColor=#333333;fillColor=#f5f5f5;" parent="PDVYzoY3RleATE-HyURN-559" vertex="1">
          <mxGeometry x="8.5" y="7" width="13" height="16" as="geometry" />
        </mxCell>
        <mxCell id="PDVYzoY3RleATE-HyURN-563" value="" style="group" parent="PDVYzoY3RleATE-HyURN-566" connectable="0" vertex="1">
          <mxGeometry x="320.5" y="437" width="30" height="30" as="geometry" />
        </mxCell>
        <mxCell id="PDVYzoY3RleATE-HyURN-564" value="" style="whiteSpace=wrap;html=1;aspect=fixed;shadow=0;dashed=0;strokeColor=#999999;strokeWidth=1;align=left;verticalAlign=middle;spacingLeft=3;fontFamily=Helvetica;fontSize=17;fontColor=#666666;fillColor=default;" parent="PDVYzoY3RleATE-HyURN-563" vertex="1">
          <mxGeometry width="30" height="30" as="geometry" />
        </mxCell>
        <mxCell id="PDVYzoY3RleATE-HyURN-565" value="" style="triangle;whiteSpace=wrap;html=1;rotation=90;shadow=0;dashed=0;strokeColor=#666666;strokeWidth=1;align=left;verticalAlign=middle;spacingLeft=3;fontFamily=Helvetica;fontSize=17;fontColor=#333333;fillColor=#f5f5f5;" parent="PDVYzoY3RleATE-HyURN-563" vertex="1">
          <mxGeometry x="8.5" y="7" width="13" height="16" as="geometry" />
        </mxCell>
        <mxCell id="PDVYzoY3RleATE-HyURN-567" style="edgeStyle=orthogonalEdgeStyle;rounded=0;orthogonalLoop=1;jettySize=auto;html=1;entryX=0.001;entryY=0.509;entryDx=0;entryDy=0;entryPerimeter=0;dashed=1;strokeColor=#999999;align=center;verticalAlign=middle;fontFamily=Helvetica;fontSize=12;fontColor=default;labelBackgroundColor=default;endArrow=none;endFill=0;fillColor=none;strokeWidth=0;" parent="1" source="PDVYzoY3RleATE-HyURN-47" target="PDVYzoY3RleATE-HyURN-502" edge="1">
          <mxGeometry relative="1" as="geometry">
            <Array as="points">
              <mxPoint x="-269" y="4681" />
              <mxPoint x="-923" y="4681" />
              <mxPoint x="-923" y="6843" />
            </Array>
          </mxGeometry>
        </mxCell>
        <mxCell id="PDVYzoY3RleATE-HyURN-593" value="" style="group;absoluteArcSize=0;" parent="1" connectable="0" vertex="1">
          <mxGeometry x="-699" y="7189" width="700" height="450" as="geometry" />
        </mxCell>
        <mxCell id="PDVYzoY3RleATE-HyURN-594" value="JanelaSocios" style="strokeWidth=1;shadow=0;dashed=0;align=center;html=1;shape=mxgraph.mockup.containers.window;align=left;verticalAlign=top;spacingLeft=8;strokeColor2=#008cff;strokeColor3=#c4c4c4;fontColor=#666666;mainText=;fontSize=17;labelBackgroundColor=none;whiteSpace=wrap;" parent="PDVYzoY3RleATE-HyURN-593" vertex="1">
          <mxGeometry width="700" height="450" as="geometry" />
        </mxCell>
        <mxCell id="PDVYzoY3RleATE-HyURN-595" value="Voltar" style="strokeWidth=1;shadow=0;dashed=0;align=center;html=1;shape=mxgraph.mockup.buttons.button;mainText=;buttonStyle=round;fontSize=14;fontStyle=0;whiteSpace=wrap;fillColor=#f5f5f5;fontColor=#333333;strokeColor=#666666;" parent="PDVYzoY3RleATE-HyURN-593" vertex="1">
          <mxGeometry x="535" y="387" width="150" height="50" as="geometry" />
        </mxCell>
        <mxCell id="PDVYzoY3RleATE-HyURN-596" value="Adicionar Sócio" style="strokeWidth=1;shadow=0;dashed=0;align=center;html=1;shape=mxgraph.mockup.buttons.button;mainText=;buttonStyle=round;fontSize=14;fontStyle=0;whiteSpace=wrap;fillColor=#f5f5f5;fontColor=#333333;strokeColor=#666666;" parent="PDVYzoY3RleATE-HyURN-593" vertex="1">
          <mxGeometry x="538" y="41" width="150" height="50" as="geometry" />
        </mxCell>
        <mxCell id="PDVYzoY3RleATE-HyURN-597" value="" style="group" parent="PDVYzoY3RleATE-HyURN-593" connectable="0" vertex="1">
          <mxGeometry x="14" y="41" width="510" height="396" as="geometry" />
        </mxCell>
        <mxCell id="PDVYzoY3RleATE-HyURN-598" value="" style="strokeWidth=1;shadow=0;dashed=0;align=center;html=1;shape=mxgraph.mockup.forms.rrect;rSize=0;strokeColor=#999999;fillColor=#ffffff;fontSize=12;" parent="PDVYzoY3RleATE-HyURN-597" vertex="1">
          <mxGeometry width="87" height="396" as="geometry" />
        </mxCell>
        <mxCell id="PDVYzoY3RleATE-HyURN-599" value="Cod" style="strokeWidth=1;shadow=0;dashed=0;align=center;html=1;shape=mxgraph.mockup.forms.rrect;rSize=0;strokeColor=#999999;fontColor=#008cff;fontSize=15;fillColor=#ffffff;resizeWidth=1;whiteSpace=wrap;" parent="PDVYzoY3RleATE-HyURN-598" vertex="1">
          <mxGeometry width="87" height="30" relative="1" as="geometry">
            <mxPoint y="-1" as="offset" />
          </mxGeometry>
        </mxCell>
        <mxCell id="PDVYzoY3RleATE-HyURN-600" value="123" style="strokeWidth=1;shadow=0;dashed=0;align=center;html=1;shape=mxgraph.mockup.forms.anchor;fontSize=15;fontColor=#666666;align=left;spacingLeft=5;resizeWidth=1;whiteSpace=wrap;" parent="PDVYzoY3RleATE-HyURN-598" vertex="1">
          <mxGeometry width="87" height="20" relative="1" as="geometry">
            <mxPoint y="30" as="offset" />
          </mxGeometry>
        </mxCell>
        <mxCell id="PDVYzoY3RleATE-HyURN-601" value="456" style="strokeWidth=1;shadow=0;dashed=0;align=center;html=1;shape=mxgraph.mockup.forms.anchor;fontSize=15;fontColor=#666666;align=left;spacingLeft=5;resizeWidth=1;whiteSpace=wrap;" parent="PDVYzoY3RleATE-HyURN-598" vertex="1">
          <mxGeometry width="87" height="20" relative="1" as="geometry">
            <mxPoint y="50" as="offset" />
          </mxGeometry>
        </mxCell>
        <mxCell id="PDVYzoY3RleATE-HyURN-602" value="789" style="strokeWidth=1;shadow=0;dashed=0;align=center;html=1;shape=mxgraph.mockup.forms.rrect;rSize=0;fontSize=15;fontColor=#666666;align=left;spacingLeft=5;fillColor=#ddeeff;strokeColor=none;resizeWidth=1;whiteSpace=wrap;" parent="PDVYzoY3RleATE-HyURN-598" vertex="1">
          <mxGeometry width="87" height="20" relative="1" as="geometry">
            <mxPoint y="70" as="offset" />
          </mxGeometry>
        </mxCell>
        <mxCell id="PDVYzoY3RleATE-HyURN-603" value="234" style="strokeWidth=1;shadow=0;dashed=0;align=center;html=1;shape=mxgraph.mockup.forms.anchor;fontSize=15;fontColor=#666666;align=left;spacingLeft=5;resizeWidth=1;whiteSpace=wrap;" parent="PDVYzoY3RleATE-HyURN-598" vertex="1">
          <mxGeometry width="87" height="20" relative="1" as="geometry">
            <mxPoint y="90" as="offset" />
          </mxGeometry>
        </mxCell>
        <mxCell id="PDVYzoY3RleATE-HyURN-604" value="" style="strokeWidth=1;shadow=0;dashed=0;align=center;shape=mxgraph.mockup.forms.rrect;rSize=0;strokeColor=#999999;fillColor=#ffffff;fontSize=11;html=1;" parent="PDVYzoY3RleATE-HyURN-597" vertex="1">
          <mxGeometry x="87" width="218" height="396" as="geometry" />
        </mxCell>
        <mxCell id="PDVYzoY3RleATE-HyURN-605" value="Nome" style="strokeWidth=1;shadow=0;dashed=0;align=center;html=1;shape=mxgraph.mockup.forms.rrect;rSize=0;strokeColor=#999999;fontColor=#008cff;fontSize=15;fillColor=#ffffff;resizeWidth=1;whiteSpace=wrap;" parent="PDVYzoY3RleATE-HyURN-604" vertex="1">
          <mxGeometry width="218" height="30" relative="1" as="geometry">
            <mxPoint y="-1" as="offset" />
          </mxGeometry>
        </mxCell>
        <mxCell id="PDVYzoY3RleATE-HyURN-606" value="Socio1" style="strokeWidth=1;shadow=0;dashed=0;align=center;html=1;shape=mxgraph.mockup.forms.anchor;fontSize=15;fontColor=#666666;align=left;spacingLeft=5;resizeWidth=1;whiteSpace=wrap;" parent="PDVYzoY3RleATE-HyURN-604" vertex="1">
          <mxGeometry width="218" height="20" relative="1" as="geometry">
            <mxPoint y="30" as="offset" />
          </mxGeometry>
        </mxCell>
        <mxCell id="PDVYzoY3RleATE-HyURN-607" value="Socio2" style="strokeWidth=1;shadow=0;dashed=0;align=center;html=1;shape=mxgraph.mockup.forms.anchor;fontSize=15;fontColor=#666666;align=left;spacingLeft=5;resizeWidth=1;whiteSpace=wrap;" parent="PDVYzoY3RleATE-HyURN-604" vertex="1">
          <mxGeometry width="218" height="20" relative="1" as="geometry">
            <mxPoint y="50" as="offset" />
          </mxGeometry>
        </mxCell>
        <mxCell id="PDVYzoY3RleATE-HyURN-608" value="Socio3" style="strokeWidth=1;shadow=0;dashed=0;align=center;html=1;shape=mxgraph.mockup.forms.rrect;rSize=0;fontSize=15;fontColor=#666666;align=left;spacingLeft=5;fillColor=#ddeeff;strokeColor=none;resizeWidth=1;whiteSpace=wrap;" parent="PDVYzoY3RleATE-HyURN-604" vertex="1">
          <mxGeometry width="218" height="20" relative="1" as="geometry">
            <mxPoint y="70" as="offset" />
          </mxGeometry>
        </mxCell>
        <mxCell id="PDVYzoY3RleATE-HyURN-609" value="Socio4" style="strokeWidth=1;shadow=0;dashed=0;align=center;html=1;shape=mxgraph.mockup.forms.anchor;fontSize=15;fontColor=#666666;align=left;spacingLeft=5;resizeWidth=1;whiteSpace=wrap;" parent="PDVYzoY3RleATE-HyURN-604" vertex="1">
          <mxGeometry width="218" height="20" relative="1" as="geometry">
            <mxPoint y="90" as="offset" />
          </mxGeometry>
        </mxCell>
        <mxCell id="PDVYzoY3RleATE-HyURN-610" value="" style="strokeWidth=1;shadow=0;dashed=0;align=center;html=1;shape=mxgraph.mockup.forms.rrect;rSize=0;strokeColor=#999999;fillColor=#ffffff;fontSize=12;" parent="PDVYzoY3RleATE-HyURN-597" vertex="1">
          <mxGeometry x="305" width="87" height="396" as="geometry" />
        </mxCell>
        <mxCell id="PDVYzoY3RleATE-HyURN-611" value="&lt;font style=&quot;font-size: 15px;&quot;&gt;Dívida&lt;/font&gt;" style="strokeWidth=1;shadow=0;dashed=0;align=center;html=1;shape=mxgraph.mockup.forms.rrect;rSize=0;strokeColor=#999999;fontColor=#008cff;fontSize=17;fillColor=#ffffff;resizeWidth=1;whiteSpace=wrap;" parent="PDVYzoY3RleATE-HyURN-610" vertex="1">
          <mxGeometry width="87" height="30" relative="1" as="geometry">
            <mxPoint y="-1" as="offset" />
          </mxGeometry>
        </mxCell>
        <mxCell id="PDVYzoY3RleATE-HyURN-612" value="5.00" style="strokeWidth=1;shadow=0;dashed=0;align=center;html=1;shape=mxgraph.mockup.forms.anchor;fontSize=15;fontColor=#666666;align=left;spacingLeft=5;resizeWidth=1;whiteSpace=wrap;" parent="PDVYzoY3RleATE-HyURN-610" vertex="1">
          <mxGeometry width="87" height="20" relative="1" as="geometry">
            <mxPoint y="30" as="offset" />
          </mxGeometry>
        </mxCell>
        <mxCell id="PDVYzoY3RleATE-HyURN-613" value="0.00" style="strokeWidth=1;shadow=0;dashed=0;align=center;html=1;shape=mxgraph.mockup.forms.anchor;fontSize=15;fontColor=#666666;align=left;spacingLeft=5;resizeWidth=1;whiteSpace=wrap;" parent="PDVYzoY3RleATE-HyURN-610" vertex="1">
          <mxGeometry width="87" height="20" relative="1" as="geometry">
            <mxPoint y="50" as="offset" />
          </mxGeometry>
        </mxCell>
        <mxCell id="PDVYzoY3RleATE-HyURN-614" value="0.00" style="strokeWidth=1;shadow=0;dashed=0;align=center;html=1;shape=mxgraph.mockup.forms.rrect;rSize=0;fontSize=15;fontColor=#666666;align=left;spacingLeft=5;fillColor=#ddeeff;strokeColor=none;resizeWidth=1;whiteSpace=wrap;" parent="PDVYzoY3RleATE-HyURN-610" vertex="1">
          <mxGeometry width="87" height="20" relative="1" as="geometry">
            <mxPoint y="70" as="offset" />
          </mxGeometry>
        </mxCell>
        <mxCell id="PDVYzoY3RleATE-HyURN-615" value="150.00" style="strokeWidth=1;shadow=0;dashed=0;align=center;html=1;shape=mxgraph.mockup.forms.anchor;fontSize=15;fontColor=#666666;align=left;spacingLeft=5;resizeWidth=1;whiteSpace=wrap;" parent="PDVYzoY3RleATE-HyURN-610" vertex="1">
          <mxGeometry width="87" height="20" relative="1" as="geometry">
            <mxPoint y="90" as="offset" />
          </mxGeometry>
        </mxCell>
        <mxCell id="PDVYzoY3RleATE-HyURN-616" value="" style="strokeWidth=1;shadow=0;dashed=0;align=center;html=1;shape=mxgraph.mockup.forms.rrect;rSize=0;strokeColor=#999999;fillColor=#ffffff;fontSize=12;" parent="PDVYzoY3RleATE-HyURN-597" vertex="1">
          <mxGeometry x="392" width="98" height="396" as="geometry" />
        </mxCell>
        <mxCell id="PDVYzoY3RleATE-HyURN-617" value="&lt;font style=&quot;font-size: 14px;&quot;&gt;Prox. anuidade&lt;/font&gt;" style="strokeWidth=1;shadow=0;dashed=0;align=center;html=1;shape=mxgraph.mockup.forms.rrect;rSize=0;strokeColor=#999999;fontColor=#008cff;fontSize=17;fillColor=#ffffff;resizeWidth=1;whiteSpace=wrap;" parent="PDVYzoY3RleATE-HyURN-616" vertex="1">
          <mxGeometry width="97.99999999999999" height="30" relative="1" as="geometry">
            <mxPoint y="-1" as="offset" />
          </mxGeometry>
        </mxCell>
        <mxCell id="PDVYzoY3RleATE-HyURN-618" value="27/04/2024" style="strokeWidth=1;shadow=0;dashed=0;align=center;html=1;shape=mxgraph.mockup.forms.anchor;fontSize=15;fontColor=#666666;align=left;spacingLeft=5;resizeWidth=1;whiteSpace=wrap;" parent="PDVYzoY3RleATE-HyURN-616" vertex="1">
          <mxGeometry width="97.99999999999999" height="20" relative="1" as="geometry">
            <mxPoint y="30" as="offset" />
          </mxGeometry>
        </mxCell>
        <mxCell id="PDVYzoY3RleATE-HyURN-619" value="20/04/2026" style="strokeWidth=1;shadow=0;dashed=0;align=center;html=1;shape=mxgraph.mockup.forms.anchor;fontSize=15;fontColor=#666666;align=left;spacingLeft=5;resizeWidth=1;whiteSpace=wrap;" parent="PDVYzoY3RleATE-HyURN-616" vertex="1">
          <mxGeometry width="97.99999999999999" height="20" relative="1" as="geometry">
            <mxPoint y="50" as="offset" />
          </mxGeometry>
        </mxCell>
        <mxCell id="PDVYzoY3RleATE-HyURN-620" value="21/04/2025" style="strokeWidth=1;shadow=0;dashed=0;align=center;html=1;shape=mxgraph.mockup.forms.rrect;rSize=0;fontSize=15;fontColor=#666666;align=left;spacingLeft=5;fillColor=#ddeeff;strokeColor=none;resizeWidth=1;whiteSpace=wrap;" parent="PDVYzoY3RleATE-HyURN-616" vertex="1">
          <mxGeometry width="97.99999999999999" height="20" relative="1" as="geometry">
            <mxPoint y="70" as="offset" />
          </mxGeometry>
        </mxCell>
        <mxCell id="PDVYzoY3RleATE-HyURN-621" value="20/04/2024" style="strokeWidth=1;shadow=0;dashed=0;align=center;html=1;shape=mxgraph.mockup.forms.anchor;fontSize=15;fontColor=#666666;align=left;spacingLeft=5;resizeWidth=1;whiteSpace=wrap;" parent="PDVYzoY3RleATE-HyURN-616" vertex="1">
          <mxGeometry width="97.99999999999999" height="20" relative="1" as="geometry">
            <mxPoint y="90" as="offset" />
          </mxGeometry>
        </mxCell>
        <mxCell id="PDVYzoY3RleATE-HyURN-622" value="" style="verticalLabelPosition=bottom;shadow=0;dashed=0;align=center;html=1;verticalAlign=top;strokeWidth=1;shape=mxgraph.mockup.navigation.scrollBar;strokeColor=#999999;barPos=41.751;fillColor2=#99ddff;strokeColor2=none;direction=north;fillColor=default;" parent="PDVYzoY3RleATE-HyURN-597" vertex="1">
          <mxGeometry x="490" y="-1" width="20" height="397" as="geometry" />
        </mxCell>
        <mxCell id="PDVYzoY3RleATE-HyURN-625" value="Enable - Disable&amp;nbsp;" style="edgeStyle=orthogonalEdgeStyle;rounded=0;orthogonalLoop=1;jettySize=auto;html=1;dashed=1;dashPattern=1 1;strokeColor=#999999;align=center;verticalAlign=middle;fontFamily=Helvetica;fontSize=12;fontColor=#999999;labelBackgroundColor=default;endArrow=none;endFill=0;fillColor=none;strokeWidth=0;" parent="PDVYzoY3RleATE-HyURN-593" source="PDVYzoY3RleATE-HyURN-623" target="PDVYzoY3RleATE-HyURN-624" edge="1">
          <mxGeometry x="-0.3761" y="-1" relative="1" as="geometry">
            <Array as="points">
              <mxPoint x="787" y="347" />
              <mxPoint x="787" y="267" />
              <mxPoint x="546" y="267" />
            </Array>
            <mxPoint as="offset" />
          </mxGeometry>
        </mxCell>
        <mxCell id="PDVYzoY3RleATE-HyURN-623" value="Notificar sócios" style="strokeWidth=1;shadow=0;dashed=0;align=center;html=1;shape=mxgraph.mockup.buttons.button;mainText=;buttonStyle=round;fontSize=14;fontStyle=0;whiteSpace=wrap;fillColor=#f5f5f5;fontColor=#333333;strokeColor=#666666;" parent="PDVYzoY3RleATE-HyURN-593" vertex="1">
          <mxGeometry x="535" y="322" width="150" height="50" as="geometry" />
        </mxCell>
        <mxCell id="PDVYzoY3RleATE-HyURN-624" value="&lt;font style=&quot;font-size: 12px;&quot;&gt;Filtrar sócios com dívidas&lt;/font&gt;" style="strokeWidth=1;shadow=0;dashed=0;align=center;html=1;shape=mxgraph.mockup.forms.rrect;rSize=0;fillColor=#eeeeee;strokeColor=#999999;gradientColor=#cccccc;align=left;spacingLeft=4;fontSize=17;fontColor=#666666;labelPosition=right;noLabel=0;" parent="PDVYzoY3RleATE-HyURN-593" vertex="1">
          <mxGeometry x="538" y="296" width="15" height="15" as="geometry" />
        </mxCell>
        <mxCell id="PDVYzoY3RleATE-HyURN-678" value="" style="group" parent="1" connectable="0" vertex="1">
          <mxGeometry x="365" y="7236" width="700" height="348" as="geometry" />
        </mxCell>
        <mxCell id="PDVYzoY3RleATE-HyURN-627" value="JanelaCriarSocio" style="strokeWidth=1;shadow=0;dashed=0;align=center;html=1;shape=mxgraph.mockup.containers.window;align=left;verticalAlign=top;spacingLeft=8;strokeColor2=#008cff;strokeColor3=#c4c4c4;fontColor=#666666;mainText=;fontSize=17;labelBackgroundColor=none;whiteSpace=wrap;" parent="PDVYzoY3RleATE-HyURN-678" vertex="1">
          <mxGeometry width="700" height="348" as="geometry" />
        </mxCell>
        <mxCell id="PDVYzoY3RleATE-HyURN-628" value="Voltar" style="strokeWidth=1;shadow=0;dashed=0;align=center;html=1;shape=mxgraph.mockup.buttons.button;mainText=;buttonStyle=round;fontSize=14;fontStyle=0;whiteSpace=wrap;fillColor=#f5f5f5;fontColor=#333333;strokeColor=#666666;" parent="PDVYzoY3RleATE-HyURN-678" vertex="1">
          <mxGeometry x="530" y="275" width="150" height="50" as="geometry" />
        </mxCell>
        <mxCell id="PDVYzoY3RleATE-HyURN-629" value="Submeter" style="strokeWidth=1;shadow=0;dashed=0;align=center;html=1;shape=mxgraph.mockup.buttons.button;mainText=;buttonStyle=round;fontSize=14;fontStyle=0;whiteSpace=wrap;fillColor=#f5f5f5;fontColor=#333333;strokeColor=#666666;" parent="PDVYzoY3RleATE-HyURN-678" vertex="1">
          <mxGeometry x="362" y="275" width="150" height="50" as="geometry" />
        </mxCell>
        <mxCell id="PDVYzoY3RleATE-HyURN-630" value="&lt;span style=&quot;color: rgb(102, 102, 102); font-family: Helvetica; font-size: 17px; font-style: normal; font-variant-ligatures: normal; font-variant-caps: normal; font-weight: 400; letter-spacing: normal; orphans: 2; text-indent: 0px; text-transform: none; widows: 2; word-spacing: 0px; -webkit-text-stroke-width: 0px; white-space: normal; background-color: rgb(255, 255, 255); text-decoration-thickness: initial; text-decoration-style: initial; text-decoration-color: initial; float: none; display: inline !important;&quot;&gt;Nome&lt;/span&gt;" style="text;whiteSpace=wrap;html=1;align=right;" parent="PDVYzoY3RleATE-HyURN-678" vertex="1">
          <mxGeometry x="43" y="54.5" width="88" height="30" as="geometry" />
        </mxCell>
        <mxCell id="PDVYzoY3RleATE-HyURN-631" value="&lt;span style=&quot;color: rgb(102, 102, 102); font-family: Helvetica; font-size: 17px; font-style: normal; font-variant-ligatures: normal; font-variant-caps: normal; font-weight: 400; letter-spacing: normal; orphans: 2; text-indent: 0px; text-transform: none; widows: 2; word-spacing: 0px; -webkit-text-stroke-width: 0px; white-space: normal; background-color: rgb(255, 255, 255); text-decoration-thickness: initial; text-decoration-style: initial; text-decoration-color: initial; float: none; display: inline !important;&quot;&gt;Morada&lt;/span&gt;" style="text;whiteSpace=wrap;html=1;align=right;" parent="PDVYzoY3RleATE-HyURN-678" vertex="1">
          <mxGeometry x="48" y="109.5" width="78" height="30" as="geometry" />
        </mxCell>
        <mxCell id="PDVYzoY3RleATE-HyURN-632" value="" style="group" parent="PDVYzoY3RleATE-HyURN-678" connectable="0" vertex="1">
          <mxGeometry x="150" y="56.5" width="530" height="30" as="geometry" />
        </mxCell>
        <mxCell id="PDVYzoY3RleATE-HyURN-633" value="" style="strokeWidth=1;shadow=0;dashed=0;align=center;html=1;shape=mxgraph.mockup.forms.pwField;strokeColor=#999999;mainText=;align=left;fontColor=#666666;fontSize=17;spacingLeft=3;" parent="PDVYzoY3RleATE-HyURN-632" vertex="1">
          <mxGeometry width="530" height="30" as="geometry" />
        </mxCell>
        <mxCell id="PDVYzoY3RleATE-HyURN-634" value="" style="group" parent="PDVYzoY3RleATE-HyURN-632" connectable="0" vertex="1">
          <mxGeometry x="500" width="30" height="30" as="geometry" />
        </mxCell>
        <mxCell id="PDVYzoY3RleATE-HyURN-635" value="" style="whiteSpace=wrap;html=1;aspect=fixed;shadow=0;dashed=0;strokeColor=#999999;strokeWidth=1;align=left;verticalAlign=middle;spacingLeft=3;fontFamily=Helvetica;fontSize=17;fontColor=#666666;fillColor=default;" parent="PDVYzoY3RleATE-HyURN-634" vertex="1">
          <mxGeometry width="30" height="30" as="geometry" />
        </mxCell>
        <mxCell id="PDVYzoY3RleATE-HyURN-636" value="" style="triangle;whiteSpace=wrap;html=1;rotation=90;shadow=0;dashed=0;strokeColor=#666666;strokeWidth=1;align=left;verticalAlign=middle;spacingLeft=3;fontFamily=Helvetica;fontSize=17;fontColor=#333333;fillColor=#f5f5f5;" parent="PDVYzoY3RleATE-HyURN-634" vertex="1">
          <mxGeometry x="8.5" y="7" width="13" height="16" as="geometry" />
        </mxCell>
        <mxCell id="PDVYzoY3RleATE-HyURN-637" value="" style="group" parent="PDVYzoY3RleATE-HyURN-678" connectable="0" vertex="1">
          <mxGeometry x="150" y="109" width="530" height="30" as="geometry" />
        </mxCell>
        <mxCell id="PDVYzoY3RleATE-HyURN-638" value="" style="strokeWidth=1;shadow=0;dashed=0;align=center;html=1;shape=mxgraph.mockup.forms.pwField;strokeColor=#999999;mainText=;align=left;fontColor=#666666;fontSize=17;spacingLeft=3;" parent="PDVYzoY3RleATE-HyURN-637" vertex="1">
          <mxGeometry width="530" height="30" as="geometry" />
        </mxCell>
        <mxCell id="PDVYzoY3RleATE-HyURN-639" value="" style="group" parent="PDVYzoY3RleATE-HyURN-637" connectable="0" vertex="1">
          <mxGeometry x="500" width="30" height="30" as="geometry" />
        </mxCell>
        <mxCell id="PDVYzoY3RleATE-HyURN-640" value="" style="whiteSpace=wrap;html=1;aspect=fixed;shadow=0;dashed=0;strokeColor=#999999;strokeWidth=1;align=left;verticalAlign=middle;spacingLeft=3;fontFamily=Helvetica;fontSize=17;fontColor=#666666;fillColor=default;" parent="PDVYzoY3RleATE-HyURN-639" vertex="1">
          <mxGeometry width="30" height="30" as="geometry" />
        </mxCell>
        <mxCell id="PDVYzoY3RleATE-HyURN-641" value="" style="triangle;whiteSpace=wrap;html=1;rotation=90;shadow=0;dashed=0;strokeColor=#666666;strokeWidth=1;align=left;verticalAlign=middle;spacingLeft=3;fontFamily=Helvetica;fontSize=17;fontColor=#333333;fillColor=#f5f5f5;" parent="PDVYzoY3RleATE-HyURN-639" vertex="1">
          <mxGeometry x="8.5" y="7" width="13" height="16" as="geometry" />
        </mxCell>
        <mxCell id="PDVYzoY3RleATE-HyURN-642" value="&lt;span style=&quot;color: rgb(102, 102, 102); font-family: Helvetica; font-size: 17px; font-style: normal; font-variant-ligatures: normal; font-variant-caps: normal; font-weight: 400; letter-spacing: normal; orphans: 2; text-indent: 0px; text-transform: none; widows: 2; word-spacing: 0px; -webkit-text-stroke-width: 0px; white-space: normal; background-color: rgb(255, 255, 255); text-decoration-thickness: initial; text-decoration-style: initial; text-decoration-color: initial; float: none; display: inline !important;&quot;&gt;Email&lt;/span&gt;" style="text;whiteSpace=wrap;html=1;align=right;" parent="PDVYzoY3RleATE-HyURN-678" vertex="1">
          <mxGeometry x="48" y="164.5" width="78" height="30" as="geometry" />
        </mxCell>
        <mxCell id="PDVYzoY3RleATE-HyURN-643" value="" style="group" parent="PDVYzoY3RleATE-HyURN-678" connectable="0" vertex="1">
          <mxGeometry x="150" y="164" width="530" height="30" as="geometry" />
        </mxCell>
        <mxCell id="PDVYzoY3RleATE-HyURN-644" value="" style="strokeWidth=1;shadow=0;dashed=0;align=center;html=1;shape=mxgraph.mockup.forms.pwField;strokeColor=#999999;mainText=;align=left;fontColor=#666666;fontSize=17;spacingLeft=3;" parent="PDVYzoY3RleATE-HyURN-643" vertex="1">
          <mxGeometry width="530" height="30" as="geometry" />
        </mxCell>
        <mxCell id="PDVYzoY3RleATE-HyURN-645" value="" style="group" parent="PDVYzoY3RleATE-HyURN-643" connectable="0" vertex="1">
          <mxGeometry x="500" width="30" height="30" as="geometry" />
        </mxCell>
        <mxCell id="PDVYzoY3RleATE-HyURN-646" value="" style="whiteSpace=wrap;html=1;aspect=fixed;shadow=0;dashed=0;strokeColor=#999999;strokeWidth=1;align=left;verticalAlign=middle;spacingLeft=3;fontFamily=Helvetica;fontSize=17;fontColor=#666666;fillColor=default;" parent="PDVYzoY3RleATE-HyURN-645" vertex="1">
          <mxGeometry width="30" height="30" as="geometry" />
        </mxCell>
        <mxCell id="PDVYzoY3RleATE-HyURN-647" value="" style="triangle;whiteSpace=wrap;html=1;rotation=90;shadow=0;dashed=0;strokeColor=#666666;strokeWidth=1;align=left;verticalAlign=middle;spacingLeft=3;fontFamily=Helvetica;fontSize=17;fontColor=#333333;fillColor=#f5f5f5;" parent="PDVYzoY3RleATE-HyURN-645" vertex="1">
          <mxGeometry x="8.5" y="7" width="13" height="16" as="geometry" />
        </mxCell>
        <mxCell id="PDVYzoY3RleATE-HyURN-660" value="&lt;span style=&quot;color: rgb(102, 102, 102); font-family: Helvetica; font-size: 17px; font-style: normal; font-variant-ligatures: normal; font-variant-caps: normal; font-weight: 400; letter-spacing: normal; orphans: 2; text-indent: 0px; text-transform: none; widows: 2; word-spacing: 0px; -webkit-text-stroke-width: 0px; white-space: normal; background-color: rgb(255, 255, 255); text-decoration-thickness: initial; text-decoration-style: initial; text-decoration-color: initial; float: none; display: inline !important;&quot;&gt;NIF ou CC&lt;/span&gt;" style="text;whiteSpace=wrap;html=1;align=right;" parent="PDVYzoY3RleATE-HyURN-678" vertex="1">
          <mxGeometry x="23" y="217" width="102" height="30" as="geometry" />
        </mxCell>
        <mxCell id="PDVYzoY3RleATE-HyURN-661" value="" style="strokeWidth=1;shadow=0;dashed=0;align=center;html=1;shape=mxgraph.mockup.forms.pwField;strokeColor=#999999;mainText=;align=left;fontColor=#666666;fontSize=17;spacingLeft=3;" parent="PDVYzoY3RleATE-HyURN-678" vertex="1">
          <mxGeometry x="149.5" y="217" width="200" height="30" as="geometry" />
        </mxCell>
        <mxCell id="PDVYzoY3RleATE-HyURN-662" value="&lt;font color=&quot;#666666&quot;&gt;&lt;span style=&quot;font-size: 17px;&quot;&gt;Telemóvel&lt;/span&gt;&lt;/font&gt;" style="text;whiteSpace=wrap;html=1;align=right;" parent="PDVYzoY3RleATE-HyURN-678" vertex="1">
          <mxGeometry x="353.5" y="217" width="102" height="30" as="geometry" />
        </mxCell>
        <mxCell id="PDVYzoY3RleATE-HyURN-663" value="" style="strokeWidth=1;shadow=0;dashed=0;align=center;html=1;shape=mxgraph.mockup.forms.pwField;strokeColor=#999999;mainText=;align=left;fontColor=#666666;fontSize=17;spacingLeft=3;" parent="PDVYzoY3RleATE-HyURN-678" vertex="1">
          <mxGeometry x="480" y="217" width="200" height="30" as="geometry" />
        </mxCell>
        <mxCell id="PDVYzoY3RleATE-HyURN-679" style="edgeStyle=orthogonalEdgeStyle;rounded=0;orthogonalLoop=1;jettySize=auto;html=1;dashed=1;dashPattern=1 1;strokeColor=#999999;align=center;verticalAlign=middle;fontFamily=Helvetica;fontSize=12;fontColor=default;labelBackgroundColor=default;endArrow=none;endFill=0;fillColor=none;strokeWidth=0;" parent="1" source="PDVYzoY3RleATE-HyURN-596" target="PDVYzoY3RleATE-HyURN-627" edge="1">
          <mxGeometry relative="1" as="geometry" />
        </mxCell>
        <mxCell id="PDVYzoY3RleATE-HyURN-681" style="edgeStyle=orthogonalEdgeStyle;rounded=0;orthogonalLoop=1;jettySize=auto;html=1;entryX=-0.001;entryY=0.519;entryDx=0;entryDy=0;entryPerimeter=0;dashed=1;strokeColor=#999999;align=center;verticalAlign=middle;fontFamily=Helvetica;fontSize=12;fontColor=default;labelBackgroundColor=default;endArrow=none;endFill=0;fillColor=none;strokeWidth=0;" parent="1" source="PDVYzoY3RleATE-HyURN-48" target="PDVYzoY3RleATE-HyURN-594" edge="1">
          <mxGeometry relative="1" as="geometry">
            <Array as="points">
              <mxPoint x="-269" y="4285" />
              <mxPoint x="-969" y="4285" />
              <mxPoint x="-969" y="7423" />
            </Array>
          </mxGeometry>
        </mxCell>
        <mxCell id="PDVYzoY3RleATE-HyURN-682" value="" style="group" parent="1" connectable="0" vertex="1">
          <mxGeometry x="133" y="4272.5" width="700" height="329" as="geometry" />
        </mxCell>
        <mxCell id="PDVYzoY3RleATE-HyURN-344" value="JanelaConfiguracoes" style="strokeWidth=1;shadow=0;dashed=0;align=center;html=1;shape=mxgraph.mockup.containers.window;align=left;verticalAlign=top;spacingLeft=8;strokeColor2=#008cff;strokeColor3=#c4c4c4;fontColor=#666666;mainText=;fontSize=17;labelBackgroundColor=none;whiteSpace=wrap;" parent="PDVYzoY3RleATE-HyURN-682" vertex="1">
          <mxGeometry width="700" height="329" as="geometry" />
        </mxCell>
        <mxCell id="PDVYzoY3RleATE-HyURN-345" value="Voltar" style="strokeWidth=1;shadow=0;dashed=0;align=center;html=1;shape=mxgraph.mockup.buttons.button;mainText=;buttonStyle=round;fontSize=14;fontStyle=0;whiteSpace=wrap;fillColor=#f5f5f5;fontColor=#333333;strokeColor=#666666;" parent="PDVYzoY3RleATE-HyURN-682" vertex="1">
          <mxGeometry x="532" y="256" width="150" height="50" as="geometry" />
        </mxCell>
        <mxCell id="PDVYzoY3RleATE-HyURN-346" value="Submeter" style="strokeWidth=1;shadow=0;dashed=0;align=center;html=1;shape=mxgraph.mockup.buttons.button;mainText=;buttonStyle=round;fontSize=14;fontStyle=0;whiteSpace=wrap;fillColor=#f5f5f5;fontColor=#333333;strokeColor=#666666;" parent="PDVYzoY3RleATE-HyURN-682" vertex="1">
          <mxGeometry x="364" y="256" width="150" height="50" as="geometry" />
        </mxCell>
        <mxCell id="PDVYzoY3RleATE-HyURN-347" value="&lt;span style=&quot;color: rgb(102, 102, 102); font-family: Helvetica; font-size: 17px; font-style: normal; font-variant-ligatures: normal; font-variant-caps: normal; font-weight: 400; letter-spacing: normal; orphans: 2; text-indent: 0px; text-transform: none; widows: 2; word-spacing: 0px; -webkit-text-stroke-width: 0px; white-space: normal; background-color: rgb(255, 255, 255); text-decoration-thickness: initial; text-decoration-style: initial; text-decoration-color: initial; float: none; display: inline !important;&quot;&gt;Máximo de dias para emprestimo&lt;/span&gt;" style="text;whiteSpace=wrap;html=1;align=left;" parent="PDVYzoY3RleATE-HyURN-682" vertex="1">
          <mxGeometry x="25" y="51" width="453" height="30" as="geometry" />
        </mxCell>
        <mxCell id="PDVYzoY3RleATE-HyURN-349" value="" style="group;align=center;direction=east;imageAlign=left;" parent="PDVYzoY3RleATE-HyURN-682" connectable="0" vertex="1">
          <mxGeometry x="484" y="51" width="196" height="30" as="geometry" />
        </mxCell>
        <mxCell id="PDVYzoY3RleATE-HyURN-350" value="5" style="strokeWidth=1;shadow=0;dashed=0;align=right;html=1;shape=mxgraph.mockup.forms.pwField;strokeColor=#999999;mainText=;align=left;fontColor=#666666;fontSize=17;spacingLeft=3;" parent="PDVYzoY3RleATE-HyURN-349" vertex="1">
          <mxGeometry width="196" height="30" as="geometry" />
        </mxCell>
        <mxCell id="PDVYzoY3RleATE-HyURN-359" value="" style="group;align=center;direction=east;imageAlign=left;" parent="PDVYzoY3RleATE-HyURN-682" connectable="0" vertex="1">
          <mxGeometry x="484" y="86" width="196" height="30" as="geometry" />
        </mxCell>
        <mxCell id="PDVYzoY3RleATE-HyURN-360" value="5" style="strokeWidth=1;shadow=0;dashed=0;align=center;html=1;shape=mxgraph.mockup.forms.pwField;strokeColor=#999999;mainText=;align=left;fontColor=#666666;fontSize=17;spacingLeft=3;" parent="PDVYzoY3RleATE-HyURN-359" vertex="1">
          <mxGeometry width="196" height="30" as="geometry" />
        </mxCell>
        <mxCell id="PDVYzoY3RleATE-HyURN-361" value="&lt;span style=&quot;color: rgb(102, 102, 102); font-family: Helvetica; font-size: 17px; font-style: normal; font-variant-ligatures: normal; font-variant-caps: normal; font-weight: 400; letter-spacing: normal; orphans: 2; text-indent: 0px; text-transform: none; widows: 2; word-spacing: 0px; -webkit-text-stroke-width: 0px; white-space: normal; background-color: rgb(255, 255, 255); text-decoration-thickness: initial; text-decoration-style: initial; text-decoration-color: initial; float: none; display: inline !important;&quot;&gt;Valor de multa diário&lt;/span&gt;" style="text;whiteSpace=wrap;html=1;align=left;" parent="PDVYzoY3RleATE-HyURN-682" vertex="1">
          <mxGeometry x="25" y="86" width="453" height="30" as="geometry" />
        </mxCell>
        <mxCell id="PDVYzoY3RleATE-HyURN-362" value="" style="group;align=center;direction=east;imageAlign=left;" parent="PDVYzoY3RleATE-HyURN-682" connectable="0" vertex="1">
          <mxGeometry x="484" y="121" width="196" height="30" as="geometry" />
        </mxCell>
        <mxCell id="PDVYzoY3RleATE-HyURN-363" value="5" style="strokeWidth=1;shadow=0;dashed=0;align=center;html=1;shape=mxgraph.mockup.forms.pwField;strokeColor=#999999;mainText=;align=left;fontColor=#666666;fontSize=17;spacingLeft=3;" parent="PDVYzoY3RleATE-HyURN-362" vertex="1">
          <mxGeometry width="196" height="30" as="geometry" />
        </mxCell>
        <mxCell id="PDVYzoY3RleATE-HyURN-364" value="&lt;span style=&quot;color: rgb(102, 102, 102); font-family: Helvetica; font-size: 17px; font-style: normal; font-variant-ligatures: normal; font-variant-caps: normal; font-weight: 400; letter-spacing: normal; orphans: 2; text-indent: 0px; text-transform: none; widows: 2; word-spacing: 0px; -webkit-text-stroke-width: 0px; white-space: normal; background-color: rgb(255, 255, 255); text-decoration-thickness: initial; text-decoration-style: initial; text-decoration-color: initial; float: none; display: inline !important;&quot;&gt;Máximo de empréstimos ativos por sócio&lt;/span&gt;" style="text;whiteSpace=wrap;html=1;align=left;" parent="PDVYzoY3RleATE-HyURN-682" vertex="1">
          <mxGeometry x="25" y="121" width="453" height="30" as="geometry" />
        </mxCell>
        <mxCell id="PDVYzoY3RleATE-HyURN-365" value="&lt;span style=&quot;color: rgb(102, 102, 102); font-family: Helvetica; font-size: 17px; font-style: normal; font-variant-ligatures: normal; font-variant-caps: normal; font-weight: 400; letter-spacing: normal; orphans: 2; text-indent: 0px; text-transform: none; widows: 2; word-spacing: 0px; -webkit-text-stroke-width: 0px; white-space: normal; background-color: rgb(255, 255, 255); text-decoration-thickness: initial; text-decoration-style: initial; text-decoration-color: initial; float: none; display: inline !important;&quot;&gt;Valor anuidade&lt;/span&gt;" style="text;whiteSpace=wrap;html=1;align=left;" parent="PDVYzoY3RleATE-HyURN-682" vertex="1">
          <mxGeometry x="25" y="156" width="453" height="30" as="geometry" />
        </mxCell>
        <mxCell id="PDVYzoY3RleATE-HyURN-366" value="" style="group;align=center;direction=east;imageAlign=left;" parent="PDVYzoY3RleATE-HyURN-682" connectable="0" vertex="1">
          <mxGeometry x="484" y="156" width="196" height="30" as="geometry" />
        </mxCell>
        <mxCell id="PDVYzoY3RleATE-HyURN-367" value="50" style="strokeWidth=1;shadow=0;dashed=0;align=right;html=1;shape=mxgraph.mockup.forms.pwField;strokeColor=#999999;mainText=;align=left;fontColor=#666666;fontSize=17;spacingLeft=3;" parent="PDVYzoY3RleATE-HyURN-366" vertex="1">
          <mxGeometry width="196" height="30" as="geometry" />
        </mxCell>
        <mxCell id="lFn2P1X0qrdAoIoFit0Z-2" value="" style="group" parent="1" connectable="0" vertex="1">
          <mxGeometry x="-701" y="7689" width="700" height="500" as="geometry" />
        </mxCell>
        <mxCell id="lFn2P1X0qrdAoIoFit0Z-3" value="JanelaEstatisticas" style="strokeWidth=1;shadow=0;dashed=0;align=center;html=1;shape=mxgraph.mockup.containers.window;align=left;verticalAlign=top;spacingLeft=8;strokeColor2=#008cff;strokeColor3=#c4c4c4;fontColor=#666666;mainText=;fontSize=17;labelBackgroundColor=none;whiteSpace=wrap;" parent="lFn2P1X0qrdAoIoFit0Z-2" vertex="1">
          <mxGeometry width="700" height="500" as="geometry" />
        </mxCell>
        <mxCell id="lFn2P1X0qrdAoIoFit0Z-4" value="Voltar" style="strokeWidth=1;shadow=0;dashed=0;align=center;html=1;shape=mxgraph.mockup.buttons.button;mainText=;buttonStyle=round;fontSize=14;fontStyle=0;whiteSpace=wrap;fillColor=#f5f5f5;fontColor=#333333;strokeColor=#666666;" parent="lFn2P1X0qrdAoIoFit0Z-2" vertex="1">
          <mxGeometry x="529.5" y="431" width="150" height="50" as="geometry" />
        </mxCell>
        <mxCell id="lFn2P1X0qrdAoIoFit0Z-7" value="Procurar" style="strokeWidth=1;shadow=0;dashed=0;align=center;html=1;shape=mxgraph.mockup.buttons.button;mainText=;buttonStyle=round;fontSize=14;fontStyle=0;whiteSpace=wrap;fillColor=#f5f5f5;fontColor=#333333;strokeColor=#666666;" parent="lFn2P1X0qrdAoIoFit0Z-2" vertex="1">
          <mxGeometry x="370" y="431" width="150" height="50" as="geometry" />
        </mxCell>
        <mxCell id="lFn2P1X0qrdAoIoFit0Z-8" value="&lt;span style=&quot;color: rgb(102, 102, 102); font-family: Helvetica; font-size: 17px; font-style: normal; font-variant-ligatures: normal; font-variant-caps: normal; font-weight: 400; letter-spacing: normal; orphans: 2; text-indent: 0px; text-transform: none; widows: 2; word-spacing: 0px; -webkit-text-stroke-width: 0px; white-space: normal; background-color: rgb(255, 255, 255); text-decoration-thickness: initial; text-decoration-style: initial; text-decoration-color: initial; float: none; display: inline !important;&quot;&gt;Autor&lt;/span&gt;" style="text;whiteSpace=wrap;html=1;align=right;" parent="lFn2P1X0qrdAoIoFit0Z-2" vertex="1">
          <mxGeometry x="16.5" y="52" width="120" height="30" as="geometry" />
        </mxCell>
        <mxCell id="lFn2P1X0qrdAoIoFit0Z-9" value="" style="verticalLabelPosition=bottom;shadow=0;dashed=0;align=center;html=1;verticalAlign=top;strokeWidth=1;shape=mxgraph.mockup.markup.line;strokeColor=#999999;" parent="lFn2P1X0qrdAoIoFit0Z-2" vertex="1">
          <mxGeometry x="18.5" y="173" width="663" height="20" as="geometry" />
        </mxCell>
        <mxCell id="lFn2P1X0qrdAoIoFit0Z-10" value="" style="strokeWidth=1;shadow=0;dashed=0;align=center;html=1;shape=mxgraph.mockup.forms.rrect;rSize=0;strokeColor=#999999;fillColor=#ffffff;" parent="lFn2P1X0qrdAoIoFit0Z-2" vertex="1">
          <mxGeometry x="21.5" y="205" width="660" height="213" as="geometry" />
        </mxCell>
        <mxCell id="lFn2P1X0qrdAoIoFit0Z-11" value="Top 10" style="strokeWidth=1;shadow=0;dashed=0;align=center;html=1;shape=mxgraph.mockup.forms.rrect;rSize=0;strokeColor=#999999;fontColor=#008cff;fontSize=17;fillColor=#ffffff;resizeWidth=1;whiteSpace=wrap;" parent="lFn2P1X0qrdAoIoFit0Z-10" vertex="1">
          <mxGeometry width="660.0000000000001" height="30" relative="1" as="geometry">
            <mxPoint y="-1" as="offset" />
          </mxGeometry>
        </mxCell>
        <mxCell id="lFn2P1X0qrdAoIoFit0Z-12" value="Item 1" style="strokeWidth=1;shadow=0;dashed=0;align=center;html=1;shape=mxgraph.mockup.forms.anchor;fontSize=17;fontColor=#666666;align=left;spacingLeft=5;resizeWidth=1;whiteSpace=wrap;" parent="lFn2P1X0qrdAoIoFit0Z-10" vertex="1">
          <mxGeometry width="660.0000000000001" height="20" relative="1" as="geometry">
            <mxPoint y="30" as="offset" />
          </mxGeometry>
        </mxCell>
        <mxCell id="lFn2P1X0qrdAoIoFit0Z-13" value="Item 2" style="strokeWidth=1;shadow=0;dashed=0;align=center;html=1;shape=mxgraph.mockup.forms.anchor;fontSize=17;fontColor=#666666;align=left;spacingLeft=5;resizeWidth=1;whiteSpace=wrap;" parent="lFn2P1X0qrdAoIoFit0Z-10" vertex="1">
          <mxGeometry width="660.0000000000001" height="20" relative="1" as="geometry">
            <mxPoint y="50" as="offset" />
          </mxGeometry>
        </mxCell>
        <mxCell id="lFn2P1X0qrdAoIoFit0Z-14" value="Item 3" style="strokeWidth=1;shadow=0;dashed=0;align=center;html=1;shape=mxgraph.mockup.forms.rrect;rSize=0;fontSize=17;fontColor=#666666;align=left;spacingLeft=5;fillColor=#ddeeff;strokeColor=none;resizeWidth=1;whiteSpace=wrap;" parent="lFn2P1X0qrdAoIoFit0Z-10" vertex="1">
          <mxGeometry width="660.0000000000001" height="20" relative="1" as="geometry">
            <mxPoint y="70" as="offset" />
          </mxGeometry>
        </mxCell>
        <mxCell id="lFn2P1X0qrdAoIoFit0Z-15" value="Item 4" style="strokeWidth=1;shadow=0;dashed=0;align=center;html=1;shape=mxgraph.mockup.forms.anchor;fontSize=17;fontColor=#666666;align=left;spacingLeft=5;resizeWidth=1;whiteSpace=wrap;" parent="lFn2P1X0qrdAoIoFit0Z-10" vertex="1">
          <mxGeometry width="660.0000000000001" height="20" relative="1" as="geometry">
            <mxPoint y="90" as="offset" />
          </mxGeometry>
        </mxCell>
        <mxCell id="lFn2P1X0qrdAoIoFit0Z-16" value="" style="group" parent="lFn2P1X0qrdAoIoFit0Z-2" connectable="0" vertex="1">
          <mxGeometry x="142.5" y="52" width="530" height="30" as="geometry" />
        </mxCell>
        <mxCell id="lFn2P1X0qrdAoIoFit0Z-17" value="-" style="strokeWidth=1;shadow=0;dashed=0;align=center;html=1;shape=mxgraph.mockup.forms.pwField;strokeColor=#999999;mainText=;align=left;fontColor=#666666;fontSize=17;spacingLeft=3;" parent="lFn2P1X0qrdAoIoFit0Z-16" vertex="1">
          <mxGeometry width="530" height="30" as="geometry" />
        </mxCell>
        <mxCell id="lFn2P1X0qrdAoIoFit0Z-18" value="" style="group" parent="lFn2P1X0qrdAoIoFit0Z-16" connectable="0" vertex="1">
          <mxGeometry x="500" width="30" height="30" as="geometry" />
        </mxCell>
        <mxCell id="lFn2P1X0qrdAoIoFit0Z-19" value="" style="whiteSpace=wrap;html=1;aspect=fixed;shadow=0;dashed=0;strokeColor=#999999;strokeWidth=1;align=left;verticalAlign=middle;spacingLeft=3;fontFamily=Helvetica;fontSize=17;fontColor=#666666;fillColor=default;" parent="lFn2P1X0qrdAoIoFit0Z-18" vertex="1">
          <mxGeometry width="30" height="30" as="geometry" />
        </mxCell>
        <mxCell id="lFn2P1X0qrdAoIoFit0Z-20" value="" style="triangle;whiteSpace=wrap;html=1;rotation=90;shadow=0;dashed=0;strokeColor=#666666;strokeWidth=1;align=left;verticalAlign=middle;spacingLeft=3;fontFamily=Helvetica;fontSize=17;fontColor=#333333;fillColor=#f5f5f5;" parent="lFn2P1X0qrdAoIoFit0Z-18" vertex="1">
          <mxGeometry x="8.5" y="7" width="13" height="16" as="geometry" />
        </mxCell>
        <mxCell id="lFn2P1X0qrdAoIoFit0Z-22" value="&lt;span style=&quot;color: rgb(102, 102, 102); font-family: Helvetica; font-size: 17px; font-style: normal; font-variant-ligatures: normal; font-variant-caps: normal; font-weight: 400; letter-spacing: normal; orphans: 2; text-indent: 0px; text-transform: none; widows: 2; word-spacing: 0px; -webkit-text-stroke-width: 0px; white-space: normal; background-color: rgb(255, 255, 255); text-decoration-thickness: initial; text-decoration-style: initial; text-decoration-color: initial; float: none; display: inline !important;&quot;&gt;Genero&lt;/span&gt;" style="text;whiteSpace=wrap;html=1;align=right;" parent="lFn2P1X0qrdAoIoFit0Z-2" vertex="1">
          <mxGeometry x="16" y="97" width="120" height="30" as="geometry" />
        </mxCell>
        <mxCell id="lFn2P1X0qrdAoIoFit0Z-23" value="" style="group" parent="lFn2P1X0qrdAoIoFit0Z-2" connectable="0" vertex="1">
          <mxGeometry x="142" y="97" width="530" height="30" as="geometry" />
        </mxCell>
        <mxCell id="lFn2P1X0qrdAoIoFit0Z-24" value="-" style="strokeWidth=1;shadow=0;dashed=0;align=center;html=1;shape=mxgraph.mockup.forms.pwField;strokeColor=#999999;mainText=;align=left;fontColor=#666666;fontSize=17;spacingLeft=3;" parent="lFn2P1X0qrdAoIoFit0Z-23" vertex="1">
          <mxGeometry width="530" height="30" as="geometry" />
        </mxCell>
        <mxCell id="lFn2P1X0qrdAoIoFit0Z-25" value="" style="group" parent="lFn2P1X0qrdAoIoFit0Z-23" connectable="0" vertex="1">
          <mxGeometry x="500" width="30" height="30" as="geometry" />
        </mxCell>
        <mxCell id="lFn2P1X0qrdAoIoFit0Z-26" value="" style="whiteSpace=wrap;html=1;aspect=fixed;shadow=0;dashed=0;strokeColor=#999999;strokeWidth=1;align=left;verticalAlign=middle;spacingLeft=3;fontFamily=Helvetica;fontSize=17;fontColor=#666666;fillColor=default;" parent="lFn2P1X0qrdAoIoFit0Z-25" vertex="1">
          <mxGeometry width="30" height="30" as="geometry" />
        </mxCell>
        <mxCell id="lFn2P1X0qrdAoIoFit0Z-27" value="" style="triangle;whiteSpace=wrap;html=1;rotation=90;shadow=0;dashed=0;strokeColor=#666666;strokeWidth=1;align=left;verticalAlign=middle;spacingLeft=3;fontFamily=Helvetica;fontSize=17;fontColor=#333333;fillColor=#f5f5f5;" parent="lFn2P1X0qrdAoIoFit0Z-25" vertex="1">
          <mxGeometry x="8.5" y="7" width="13" height="16" as="geometry" />
        </mxCell>
        <mxCell id="lFn2P1X0qrdAoIoFit0Z-30" value="&lt;span style=&quot;color: rgb(102, 102, 102); font-family: Helvetica; font-size: 17px; font-style: normal; font-variant-ligatures: normal; font-variant-caps: normal; font-weight: 400; letter-spacing: normal; orphans: 2; text-indent: 0px; text-transform: none; widows: 2; word-spacing: 0px; -webkit-text-stroke-width: 0px; white-space: normal; background-color: rgb(255, 255, 255); text-decoration-thickness: initial; text-decoration-style: initial; text-decoration-color: initial; float: none; display: inline !important;&quot;&gt;Subgênero&lt;/span&gt;" style="text;whiteSpace=wrap;html=1;align=right;" parent="lFn2P1X0qrdAoIoFit0Z-2" vertex="1">
          <mxGeometry x="16" y="143" width="120" height="30" as="geometry" />
        </mxCell>
        <mxCell id="lFn2P1X0qrdAoIoFit0Z-31" value="" style="group" parent="lFn2P1X0qrdAoIoFit0Z-2" connectable="0" vertex="1">
          <mxGeometry x="142" y="143" width="530" height="30" as="geometry" />
        </mxCell>
        <mxCell id="lFn2P1X0qrdAoIoFit0Z-32" value="-" style="strokeWidth=1;shadow=0;dashed=0;align=center;html=1;shape=mxgraph.mockup.forms.pwField;strokeColor=#999999;mainText=;align=left;fontColor=#666666;fontSize=17;spacingLeft=3;" parent="lFn2P1X0qrdAoIoFit0Z-31" vertex="1">
          <mxGeometry width="530" height="30" as="geometry" />
        </mxCell>
        <mxCell id="lFn2P1X0qrdAoIoFit0Z-33" value="" style="group" parent="lFn2P1X0qrdAoIoFit0Z-31" connectable="0" vertex="1">
          <mxGeometry x="500" width="30" height="30" as="geometry" />
        </mxCell>
        <mxCell id="lFn2P1X0qrdAoIoFit0Z-34" value="" style="whiteSpace=wrap;html=1;aspect=fixed;shadow=0;dashed=0;strokeColor=#999999;strokeWidth=1;align=left;verticalAlign=middle;spacingLeft=3;fontFamily=Helvetica;fontSize=17;fontColor=#666666;fillColor=default;" parent="lFn2P1X0qrdAoIoFit0Z-33" vertex="1">
          <mxGeometry width="30" height="30" as="geometry" />
        </mxCell>
        <mxCell id="lFn2P1X0qrdAoIoFit0Z-35" value="" style="triangle;whiteSpace=wrap;html=1;rotation=90;shadow=0;dashed=0;strokeColor=#666666;strokeWidth=1;align=left;verticalAlign=middle;spacingLeft=3;fontFamily=Helvetica;fontSize=17;fontColor=#333333;fillColor=#f5f5f5;" parent="lFn2P1X0qrdAoIoFit0Z-33" vertex="1">
          <mxGeometry x="8.5" y="7" width="13" height="16" as="geometry" />
        </mxCell>
        <mxCell id="lFn2P1X0qrdAoIoFit0Z-36" style="edgeStyle=orthogonalEdgeStyle;rounded=0;orthogonalLoop=1;jettySize=auto;html=1;dashed=1;strokeColor=#999999;strokeWidth=0;align=center;verticalAlign=middle;fontFamily=Helvetica;fontSize=12;fontColor=default;labelBackgroundColor=default;endArrow=none;endFill=0;fillColor=none;" parent="1" source="lFn2P1X0qrdAoIoFit0Z-3" target="PDVYzoY3RleATE-HyURN-46" edge="1">
          <mxGeometry relative="1" as="geometry">
            <Array as="points">
              <mxPoint x="-1020" y="7939" />
              <mxPoint x="-1020" y="4640" />
              <mxPoint x="-101" y="4640" />
            </Array>
          </mxGeometry>
        </mxCell>
      </root>
    </mxGraphModel>
  </diagram>
</mxfile>
